<?xml version="1.0" encoding="UTF-8" standalone="no"?>
<svg
   height="48"
   width="48"
   version="1.1"
   id="svg10"
   sodipodi:docname="aks.svg"
   inkscape:version="1.1.2 (0a00cf5339, 2022-02-04)"
   xmlns:inkscape="http://www.inkscape.org/namespaces/inkscape"
   xmlns:sodipodi="http://sodipodi.sourceforge.net/DTD/sodipodi-0.dtd"
   xmlns="http://www.w3.org/2000/svg"
   xmlns:svg="http://www.w3.org/2000/svg">
  <defs
     id="defs14">
    <linearGradient
       id="b-36"
       x1="5.822"
       x2="12.294"
       y1="5.441"
       y2="13.421"
       gradientTransform="matrix(1.933632,0,0,1.933632,0.56961517,0.69055681)"
       gradientUnits="userSpaceOnUse">
      <stop
         offset="0"
         stop-color="#deb247"
         id="stop7-7" />
      <stop
         offset="1"
         stop-color="#de7947"
         id="stop9-5" />
    </linearGradient>
  </defs>
  <sodipodi:namedview
     id="namedview12"
     pagecolor="#ffffff"
     bordercolor="#666666"
     borderopacity="1.0"
     inkscape:pageshadow="2"
     inkscape:pageopacity="0.0"
     inkscape:pagecheckerboard="0"
     showgrid="false"
     inkscape:zoom="5.8336309"
     inkscape:cx="15.084945"
     inkscape:cy="23.141677"
     inkscape:window-width="1920"
     inkscape:window-height="996"
     inkscape:window-x="0"
     inkscape:window-y="0"
     inkscape:window-maximized="1"
     inkscape:current-layer="svg10" />
  <g
     fill="#626c97"
     opacity="0.99"
     transform="matrix(1.1503549,0,0,1.1503549,-4.486125,-7.525565)"
     id="g6">
    <path
       d="M 44.322082,27.405077 A 19.729762,19.729765 0 0 1 24.59232,47.134842 19.729762,19.729765 0 0 1 4.8625579,27.405077 19.729762,19.729765 0 0 1 24.59232,7.6753138 19.729762,19.729765 0 0 1 44.322082,27.405077 Z"
       id="path2" />
    <path
       id="path4"
       style="fill:#8690ba;fill-opacity:1;stroke-width:1.15035"
       d="M 23.804688,1.3046875 A 22.696228,22.696232 0 0 0 1.1074219,24 22.696228,22.696232 0 0 0 23.804688,46.695312 22.696228,22.696232 0 0 0 46.5,24 22.696228,22.696232 0 0 0 23.804688,1.3046875 Z"
       transform="matrix(0.86929694,0,0,0.86929694,3.8997748,6.5419507)" />
  </g>
  <path
     id="path4-3"
     style="fill:#ffffff;fill-opacity:1;stroke-width:0.551913"
     d="m 23.885936,8.5463408 v 0.002 a 3.4998054,3.5140565 0 0 0 -1.832645,0.467636 L 11.755831,14.986288 A 3.4998054,3.5140565 0 0 0 10.00575,18.03032 v 11.939938 a 3.4998054,3.5140565 0 0 0 1.750081,3.042677 l 10.29746,5.969632 a 3.4998054,3.5140565 0 0 0 3.500839,0 l 10.297461,-5.969592 a 3.4998054,3.5140565 0 0 0 1.750081,-3.042677 V 18.030346 A 3.4998054,3.5140565 0 0 0 35.851591,14.986314 L 25.55413,9.0160058 a 3.4998054,3.5140565 0 0 0 -1.668194,-0.469665 z m 0.571856,6.0109122 c 0.127263,-0.0041 0.235584,0.0084 0.299124,0.04264 0.204989,0.1106 0.178092,0.267993 -0.04602,0.267993 -0.102227,0 -0.410341,0.0186 -0.684873,0.04196 -0.367694,0.03138 -0.499443,0.02215 -0.499443,-0.03587 0,-0.145339 0.54942,-0.30428 0.931211,-0.31672 z m -0.26258,0.508241 c 0.134571,-5.2e-4 0.244985,0.0288 0.244985,0.06497 0,0.07069 -0.0071,0.0719 -0.473051,0.09001 -0.170424,0.0063 -0.309952,-0.0078 -0.309952,-0.03113 0,-0.06343 0.257319,-0.122827 0.538018,-0.123846 z m -0.586744,0.766761 c 0.09753,-0.0012 0.203865,-0.0011 0.322134,0 1.017375,0.0093 1.581429,0.100177 2.462024,0.395222 1.234174,0.4135 2.31857,1.047571 3.297814,1.929421 0.286103,0.257638 0.530817,0.436111 0.544108,0.3959 0.07607,-0.230093 -1.075488,-1.41564 -1.763616,-1.815726 -0.48434,-0.281597 -0.621869,-0.423647 -0.411465,-0.423647 0.05293,0 0.370754,0.148053 0.706529,0.328902 0.66105,0.356034 0.742179,0.380445 0.774205,0.230096 0.03713,-0.174452 0.565621,0.150131 1.067238,0.655772 1.317654,1.328192 2.253333,3.488122 2.508043,5.788938 0.146311,1.321508 0.08429,1.990458 -0.364769,3.912981 -0.199712,0.854954 -0.834396,2.190386 -1.359595,2.860632 -0.198399,0.253183 -0.481617,0.617854 -0.628703,0.810749 -0.301493,0.395387 -1.670482,1.453265 -2.342916,1.810312 -0.666227,0.353748 -2.147677,0.841439 -2.152749,0.709236 0.0017,-0.02508 0.169655,-0.103344 0.374921,-0.174602 0.242873,-0.0843 0.397163,-0.180175 0.437182,-0.272054 0.03402,-0.07801 0.254175,-0.253629 0.489292,-0.390486 0.235118,-0.136858 0.642937,-0.394054 0.906171,-0.571179 0.41272,-0.277698 0.473138,-0.342892 0.440565,-0.473727 -0.02509,-0.100682 -0.0048,-0.1645 0.05955,-0.18949 0.118008,-0.04564 0.130111,-0.172968 0.01624,-0.172572 -0.04487,1.26e-4 -0.214123,0.09002 -0.375597,0.200319 -0.406169,0.277445 -0.866563,0.509097 -0.951514,0.478463 -0.03903,-0.01412 -0.229445,0.04895 -0.423647,0.140088 -0.194203,0.09111 -0.430313,0.166126 -0.524483,0.166481 -0.09417,3.32e-4 -0.296134,0.04451 -0.448686,0.09881 -0.152547,0.05423 -0.308196,0.09881 -0.34582,0.09881 -0.118309,0 0.222917,-0.319291 0.651035,-0.609077 0.429045,-0.290434 0.531229,-0.419661 0.244985,-0.309961 -0.221161,0.08477 -0.550199,0.08206 -0.550199,-0.0047 0,-0.03785 0.09075,-0.119065 0.201672,-0.180693 0.456404,-0.25348 0.789595,-0.483098 0.753902,-0.519069 -0.02089,-0.02105 -0.242339,0.08397 -0.491999,0.233479 -0.249661,0.149501 -0.485229,0.272055 -0.523806,0.272055 -0.171865,0 -0.03617,-0.153499 0.387102,-0.437182 0.474394,-0.317981 0.583045,-0.479507 0.148885,-0.221298 -0.348793,0.20745 -0.866919,0.405314 -0.866919,0.330932 0,-0.03435 0.252182,-0.22991 0.560351,-0.434475 0.308175,-0.204572 0.612047,-0.458958 0.676075,-0.565088 0.06404,-0.10613 0.309858,-0.353744 0.546139,-0.5502 0.236283,-0.196456 0.457342,-0.409299 0.491322,-0.47305 0.03401,-0.06376 0.24198,-0.337813 0.461545,-0.609076 0.481072,-0.594337 1.070072,-1.7517 1.238456,-2.432924 0.07241,-0.292981 0.141251,-0.893415 0.169189,-1.479381 0.04175,-0.876081 0.03072,-1.066963 -0.09745,-1.704738 -0.376651,-1.874492 -1.035516,-3.115601 -2.088458,-3.932644 -1.066961,-0.827928 -1.950453,-1.126792 -3.32759,-1.126792 -1.03206,0 -1.663724,0.148791 -2.748291,0.649005 -1.037208,0.478385 -1.338438,0.688158 -2.061387,1.431331 -0.613306,0.630463 -0.620584,0.641515 -1.18973,1.9213 l -0.205056,0.460868 0.04196,-0.328902 c 0.05334,-0.417762 0.389435,-1.155076 0.753225,-1.652629 0.560314,-0.766344 1.585377,-1.612807 2.179819,-1.799483 0.143538,-0.04508 0.537518,-0.23325 0.87504,-0.41891 l 0.613814,-0.337699 -0.287619,-0.01827 c -0.158115,-0.01008 -0.353791,-0.05198 -0.434475,-0.09339 -0.106994,-0.05485 -0.208328,-0.056 -0.374921,-0.0047 -0.351906,0.108866 -0.273038,-0.02815 0.13129,-0.228066 0.362528,-0.179226 0.403003,-0.249914 0.213854,-0.370184 -0.129873,-0.08258 -0.735092,0.172063 -1.399524,0.588098 -0.740572,0.463719 -1.499259,1.20912 -0.92715,0.910908 l 0.204379,-0.106926 -0.04467,0.180693 c -0.02905,0.116711 -0.01642,0.198863 0.03587,0.231448 0.0582,0.03625 0.0084,0.136547 -0.175955,0.355296 -0.376996,0.447301 -0.818569,1.034311 -1.022573,1.359594 -0.09848,0.157012 -0.290814,0.42613 -0.42703,0.597573 -0.255082,0.321066 -0.600956,1.234599 -0.600956,1.586984 0,0.09969 -0.02909,0.235484 -0.06429,0.301831 -0.04652,0.08764 -0.03918,0.130133 0.02504,0.154976 0.13188,0.05098 0.184537,0.434926 0.200995,1.458401 0.01752,1.090927 0.108702,1.394402 0.661188,2.207566 0.193431,0.284688 0.351234,0.533778 0.351234,0.553583 0,0.01983 -0.08065,0.01784 -0.17934,-0.0047 -0.15259,-0.03452 -0.107556,0.03132 0.299802,0.440565 0.263444,0.264668 0.451139,0.490871 0.417556,0.50215 -0.03358,0.01126 -0.194031,-0.03733 -0.356648,-0.107604 -0.267145,-0.115415 -0.425533,-0.269564 -0.889253,-0.862859 -0.157304,-0.201274 -0.255527,-0.130476 -0.148209,0.106927 0.132695,0.293547 0.03565,0.244734 -0.225358,-0.113694 -0.137003,-0.188136 -0.259587,-0.30977 -0.272731,-0.270025 -0.03155,0.09543 0.04887,0.240771 0.458161,0.824962 0.188009,0.268325 0.391936,0.580597 0.453424,0.694347 0.07368,0.13629 0.178108,0.219899 0.305892,0.245661 0.106654,0.02153 0.209848,0.08122 0.229419,0.132644 0.04529,0.118976 0.880234,0.49989 0.996856,0.454777 0.04819,-0.01857 0.234885,0.02457 0.414849,0.0961 0.179957,0.07149 0.480227,0.130574 0.667278,0.130613 0.926336,1.32e-4 2.066466,1.01683 2.068154,1.84415 7.65e-4,0.405335 -0.320949,0.946391 -0.724801,1.21883 -0.509773,0.343892 -1.620308,0.466991 -2.32126,0.257166 -0.866226,-0.259268 -3.31474,-2.433649 -4.293993,-3.813501 -0.580996,-0.818682 -0.892178,-1.500295 -1.172134,-2.564891 -0.379804,-1.701265 0.11358,-4.050256 0.560351,-5.383563 0.37064,-1.097828 0.482246,-1.33266 0.653742,-1.377867 0.159888,-0.04217 0.189642,0.0076 0.118431,0.196258 -0.115768,0.306944 -0.08322,0.37189 0.167158,0.330931 0.289243,-0.04729 0.289338,-0.03417 -0.0034,0.847971 -0.230486,0.694412 -0.277396,1.046862 -0.05888,0.441919 0.352293,-0.97525 0.617341,-1.380797 0.525837,-0.803982 -0.05982,0.377151 0.07652,0.311863 0.295741,-0.142117 0.09471,-0.196125 0.26668,-0.445759 0.381688,-0.554261 l 0.209116,-0.196934 -0.182046,0.376274 c -0.100079,0.20697 -0.160867,0.397244 -0.135351,0.42297 0.07218,0.07274 0.150316,-0.03967 0.3668,-0.52719 0.150191,-0.338255 0.174557,-0.441018 0.09813,-0.411465 -0.06103,0.02365 -0.01543,-0.08226 0.113694,-0.263933 0.118558,-0.166835 0.250789,-0.317563 0.293711,-0.334316 0.0429,-0.0167 0.211304,-0.212899 0.374244,-0.435829 0.528229,-0.722713 1.208331,-1.172271 2.75032,-1.817756 0.355375,-0.148771 0.84163,-0.389102 1.080097,-0.533957 0.530648,-0.322354 0.759446,-0.40014 1.442159,-0.408758 z m 1.469906,0.513654 c -0.03256,7.62e-4 -0.05622,0.0046 -0.06835,0.01218 -0.08167,0.05084 0.06621,0.103685 0.702469,0.250398 0.548367,0.126442 0.705852,0.124184 0.468313,-0.0054 -0.209711,-0.114594 -0.874498,-0.262447 -1.102429,-0.257167 z m -5.900602,0.274762 c 0.01356,0.0023 0.01704,0.01471 0.0074,0.03993 -0.02914,0.07653 -0.817464,0.795936 -1.494269,1.363655 l -0.195581,0.164451 0.146178,-0.209116 c 0.286302,-0.409084 1.405159,-1.380605 1.53623,-1.35892 z m 7.507888,0.166481 c -0.05119,0.0089 0.124661,0.123675 0.52719,0.336345 0.358817,0.189595 0.798664,0.438451 0.97723,0.552907 0.329812,0.211394 0.443645,0.232687 0.297771,0.05549 -0.155446,-0.188797 -0.814648,-0.587926 -1.27094,-0.769464 -0.314048,-0.12494 -0.491441,-0.182228 -0.531251,-0.175278 z m -9.027874,0.415526 c 0.02919,-0.0061 0.04163,0.01284 0.05008,0.05482 0.02683,0.133307 -0.173477,0.437859 -0.288296,0.437859 -0.04969,0 -0.09069,-0.05687 -0.09069,-0.126553 0,-0.06976 0.08065,-0.190939 0.17934,-0.269347 0.07453,-0.05923 0.120369,-0.09071 0.149562,-0.09678 z m 3.752591,0.623965 c 0.05595,0 0.08374,0.02947 0.06159,0.06565 -0.02217,0.03617 -0.06843,0.06632 -0.10219,0.06632 -0.03375,0 -0.06091,-0.03024 -0.06091,-0.06632 0,-0.03617 0.04557,-0.06565 0.101513,-0.06565 z m 8.150126,4.754861 c 0.07198,0.0045 0.169417,0.532 0.150916,0.854737 -0.0192,0.336049 -0.0212,0.331788 -0.111664,-0.233479 -0.05067,-0.316654 -0.07484,-0.593613 -0.05346,-0.615168 0.0045,-0.0046 0.0094,-0.0064 0.01421,-0.0061 z m 0.128583,1.570741 c 0.0047,-0.0047 0.01034,0.0072 0.01624,0.0379 0.01565,0.0818 0.01524,0.199705 -0.0013,0.26258 -0.01626,0.06289 -0.02911,-0.0034 -0.02842,-0.148209 4.37e-4,-0.09043 0.0057,-0.144456 0.01354,-0.152269 z m -0.0013,0.787063 c 0.0022,-2.34e-4 0.0041,7.65e-4 0.0061,0.0027 0.04732,0.04768 -0.145585,1.116308 -0.26461,1.466522 -0.111787,0.328876 -0.404821,0.953544 -0.447334,0.953544 -0.01257,0 0.07459,-0.258766 0.193552,-0.575239 0.184525,-0.491009 0.335401,-1.052214 0.460868,-1.717597 0.01424,-0.07495 0.03586,-0.128297 0.05143,-0.129936 z m -0.846617,2.643394 c 0.03663,-0.01153 -0.220661,0.496943 -0.399284,0.782325 -0.08489,0.135635 -0.197709,0.246338 -0.251075,0.246338 -0.05341,0 -0.09745,-0.01499 -0.09745,-0.03384 0,-0.03245 0.607935,-0.845261 0.736983,-0.985351 0.0052,-0.0056 0.0084,-0.0087 0.01083,-0.0095 z m -0.63141,4.932846 c -0.06366,-0.0036 -0.326856,0.110568 -0.463575,0.207087 -0.196895,0.139012 -0.0842,0.12086 0.219268,-0.03519 0.142098,-0.07305 0.258519,-0.145983 0.258519,-0.16242 0,-0.0057 -0.0051,-0.009 -0.01421,-0.0095 z" />
</svg>
