<?xml version="1.0" encoding="UTF-8" standalone="no"?>
<svg
   height="48"
   width="48"
   version="1.1"
   id="svg6"
   sodipodi:docname="allegorithmic-Substance_Painter.svg"
   inkscape:version="1.1.2 (0a00cf5339, 2022-02-04)"
   xmlns:inkscape="http://www.inkscape.org/namespaces/inkscape"
   xmlns:sodipodi="http://sodipodi.sourceforge.net/DTD/sodipodi-0.dtd"
   xmlns="http://www.w3.org/2000/svg"
   xmlns:svg="http://www.w3.org/2000/svg"
   xmlns:rdf="http://www.w3.org/1999/02/22-rdf-syntax-ns#"
   xmlns:cc="http://creativecommons.org/ns#"
   xmlns:dc="http://purl.org/dc/elements/1.1/">
  <metadata
     id="metadata12">
    <rdf:RDF>
      <cc:Work
         rdf:about="">
        <dc:format>image/svg+xml</dc:format>
        <dc:type
           rdf:resource="http://purl.org/dc/dcmitype/StillImage" />
      </cc:Work>
    </rdf:RDF>
  </metadata>
  <defs
     id="defs10" />
  <sodipodi:namedview
     pagecolor="#ffffff"
     bordercolor="#666666"
     borderopacity="1"
     objecttolerance="10"
     gridtolerance="10"
     guidetolerance="10"
     inkscape:pageopacity="0"
     inkscape:pageshadow="2"
     inkscape:window-width="1920"
     inkscape:window-height="1030"
     id="namedview8"
     showgrid="false"
     inkscape:zoom="13.376103"
     inkscape:cx="12.111151"
     inkscape:cy="21.306654"
     inkscape:window-x="0"
     inkscape:window-y="0"
     inkscape:window-maximized="1"
     inkscape:current-layer="svg6"
     inkscape:document-rotation="0"
     inkscape:pagecheckerboard="0" />
  <path
     id="circle2"
     style="opacity:0.99;fill:#c67485"
     transform="matrix(1.75830584759 0 0 1.75830608345 -18.15909274367 -30.97874795549)"
     d="M 37.173613,31.534513 A 13.232998,13.232998 0 0 1 23.940615,44.767511 13.232998,13.232998 0 0 1 10.707617,31.534513 13.232998,13.232998 0 0 1 23.940615,18.301516 13.232998,13.232998 0 0 1 37.173613,31.534513 Z" />
  <rect
     style="fill:#c67485;fill-opacity:0.99215686;stroke:none;stroke-width:4.05796;stroke-linecap:round;stroke-linejoin:round;stroke-miterlimit:4;stroke-dasharray:none;stroke-opacity:1"
     id="rect1176"
     width="2.4537799"
     height="5.7262249"
     x="11.520597"
     y="13.827993" />
  <rect
     y="22.417347"
     x="11.520597"
     height="5.7262249"
     width="2.4537799"
     id="rect1178"
     style="fill:#c67485;fill-opacity:0.99215686;stroke:none;stroke-width:4.05796;stroke-linecap:round;stroke-linejoin:round;stroke-miterlimit:4;stroke-dasharray:none;stroke-opacity:1" />
  <rect
     style="fill:#c67485;fill-opacity:0.99215686;stroke:none;stroke-width:4.05796;stroke-linecap:round;stroke-linejoin:round;stroke-miterlimit:4;stroke-dasharray:none;stroke-opacity:1"
     id="rect1180"
     width="2.4537799"
     height="5.7262249"
     x="11.520597"
     y="31.006702" />
  <rect
     y="31.006702"
     x="20.109953"
     height="5.7262249"
     width="2.4537799"
     id="rect1182"
     style="fill:#c67485;fill-opacity:0.99215686;stroke:none;stroke-width:4.05796;stroke-linecap:round;stroke-linejoin:round;stroke-miterlimit:4;stroke-dasharray:none;stroke-opacity:1" />
  <path
     id="circle10"
     style="fill:#ffffff;fill-opacity:1;stroke-width:0.515972"
     d="m 23.581331,7.6804504 a 1.8059075,1.8059075 0 0 0 -1.80617,1.8055008 1.8059075,1.8059075 0 0 0 1.80617,1.8061698 1.8059075,1.8059075 0 0 0 1.805501,-1.8061698 1.8059075,1.8059075 0 0 0 -1.805501,-1.8055008 z M 23.323307,12.324217 A 12.383365,12.383365 0 0 0 10.940148,24.707376 12.383365,12.383365 0 0 0 23.323307,37.090536 12.383365,12.383365 0 0 0 35.706465,24.707376 12.383365,12.383365 0 0 0 23.323307,12.324217 Z m 0,2.579574 8.255439,4.643768 v 4.387081 l -3.611671,-1.291458 v -1.031429 l -4.643768,-2.580242 -3.611671,2.064194 11.86711,4.127719 v 4.12772 l -8.255439,4.643768 -8.255439,-4.643768 V 24.99147 l 3.611671,1.264051 v 1.031429 l 4.643768,2.580243 3.611671,-2.064195 -11.86711,-4.127719 v -4.12772 z m 12.641182,17.026927 a 2.8378546,2.8378546 0 0 0 -2.837597,2.838267 2.8378546,2.8378546 0 0 0 2.837597,2.837598 2.8378546,2.8378546 0 0 0 2.838267,-2.837598 2.8378546,2.8378546 0 0 0 -2.838267,-2.838267 z m -25.282366,0.516048 a 1.2899339,1.2899339 0 0 0 -1.2901207,1.290122 1.2899339,1.2899339 0 0 0 1.2901207,1.290121 1.2899339,1.2899339 0 0 0 1.289454,-1.290121 1.2899339,1.2899339 0 0 0 -1.289454,-1.290122 z" />
</svg>
