<?xml version="1.0" encoding="UTF-8" standalone="no"?>
<svg
   height="48"
   width="48"
   version="1.1"
   id="svg6"
   sodipodi:docname="ares.svg"
   inkscape:version="1.1.2 (0a00cf5339, 2022-02-04)"
   xmlns:inkscape="http://www.inkscape.org/namespaces/inkscape"
   xmlns:sodipodi="http://sodipodi.sourceforge.net/DTD/sodipodi-0.dtd"
   xmlns="http://www.w3.org/2000/svg"
   xmlns:svg="http://www.w3.org/2000/svg"
   xmlns:rdf="http://www.w3.org/1999/02/22-rdf-syntax-ns#"
   xmlns:cc="http://creativecommons.org/ns#"
   xmlns:dc="http://purl.org/dc/elements/1.1/">
  <metadata
     id="metadata12">
    <rdf:RDF>
      <cc:Work
         rdf:about="">
        <dc:format>image/svg+xml</dc:format>
        <dc:type
           rdf:resource="http://purl.org/dc/dcmitype/StillImage" />
      </cc:Work>
    </rdf:RDF>
  </metadata>
  <defs
     id="defs10" />
  <sodipodi:namedview
     pagecolor="#ffffff"
     bordercolor="#666666"
     borderopacity="1"
     objecttolerance="10"
     gridtolerance="10"
     guidetolerance="10"
     inkscape:pageopacity="0"
     inkscape:pageshadow="2"
     inkscape:window-width="1920"
     inkscape:window-height="1024"
     id="namedview8"
     showgrid="true"
     inkscape:zoom="6.9532165"
     inkscape:cx="-12.368377"
     inkscape:cy="25.8873"
     inkscape:window-x="0"
     inkscape:window-y="0"
     inkscape:window-maximized="1"
     inkscape:current-layer="svg6"
     inkscape:pagecheckerboard="0"
     inkscape:lockguides="true">
    <inkscape:grid
       type="xygrid"
       id="grid822" />
  </sodipodi:namedview>
  <path
     d="m44.322082 27.405077a19.729762 19.729765 0 0 1 -19.729762 19.729765 19.729762 19.729765 0 0 1 -19.7297621-19.729765 19.729762 19.729765 0 0 1 19.7297621-19.7297632 19.729762 19.729765 0 0 1 19.729762 19.7297632z"
     opacity=".99"
     transform="matrix(1.1503549 0 0 1.1503549 -4.486125 -7.525565)"
     id="path2"
     style="fill:#ebcb8b;fill-opacity:1" />
  <path
     style="opacity:1;fill:#ffffff;fill-opacity:0.992884;stroke-width:0.753221"
     d="m 25.485962,8.6387688 c -1.108243,-0.111644 -1.57581,1.4367982 -0.606816,2.0095772 3.119122,1.850062 5.141123,5.302618 5.142298,9.049397 0,5.761684 -4.545802,10.500896 -10.061253,10.50243 -3.575331,-0.01011 -6.867004,-2.108252 -8.635023,-5.354383 -0.549966,-1.008444 -2.0278052,-0.520105 -1.9224772,0.635266 0.7259042,7.895047 7.0834342,13.943959 14.6763232,13.961849 8.92e-4,10e-7 0.0018,10e-7 0.0026,0 8.149668,0 14.77838,-6.924203 14.77838,-15.437126 C 38.859502,16.058075 33.060025,9.3939578 25.485913,8.6387688 Z"
     id="path4" />
</svg>
