<?xml version="1.0" encoding="UTF-8" standalone="no"?>
<svg
   height="48"
   width="48"
   version="1.1"
   id="svg6"
   sodipodi:docname="armello.svg"
   inkscape:version="1.1.2 (0a00cf5339, 2022-02-04)"
   xmlns:inkscape="http://www.inkscape.org/namespaces/inkscape"
   xmlns:sodipodi="http://sodipodi.sourceforge.net/DTD/sodipodi-0.dtd"
   xmlns="http://www.w3.org/2000/svg"
   xmlns:svg="http://www.w3.org/2000/svg"
   xmlns:rdf="http://www.w3.org/1999/02/22-rdf-syntax-ns#"
   xmlns:cc="http://creativecommons.org/ns#"
   xmlns:dc="http://purl.org/dc/elements/1.1/">
  <metadata
     id="metadata12">
    <rdf:RDF>
      <cc:Work
         rdf:about="">
        <dc:format>image/svg+xml</dc:format>
        <dc:type
           rdf:resource="http://purl.org/dc/dcmitype/StillImage" />
      </cc:Work>
    </rdf:RDF>
  </metadata>
  <defs
     id="defs10" />
  <sodipodi:namedview
     pagecolor="#ffffff"
     bordercolor="#666666"
     borderopacity="1"
     objecttolerance="10"
     gridtolerance="10"
     guidetolerance="10"
     inkscape:pageopacity="0"
     inkscape:pageshadow="2"
     inkscape:window-width="1920"
     inkscape:window-height="995"
     id="namedview8"
     showgrid="true"
     inkscape:zoom="6.9532165"
     inkscape:cx="-14.238015"
     inkscape:cy="25.959209"
     inkscape:window-x="0"
     inkscape:window-y="0"
     inkscape:window-maximized="1"
     inkscape:current-layer="svg6"
     inkscape:pagecheckerboard="0"
     inkscape:lockguides="true">
    <inkscape:grid
       type="xygrid"
       id="grid822" />
  </sodipodi:namedview>
  <path
     d="m44.322082 27.405077a19.729762 19.729765 0 0 1 -19.729762 19.729765 19.729762 19.729765 0 0 1 -19.7297621-19.729765 19.729762 19.729765 0 0 1 19.7297621-19.7297632 19.729762 19.729765 0 0 1 19.729762 19.7297632z"
     opacity=".99"
     transform="matrix(1.1503549 0 0 1.1503549 -4.486125 -7.525565)"
     id="path2"
     style="fill:#ebcb8b;fill-opacity:1" />
  <path
     style="fill:#ffffff;stroke-width:0.614972"
     d="m 21.267006,10.470577 -0.538102,4.30482 4.343253,2.882688 c 0,0 4.650736,-2.114727 5.496326,-1.669707 1.69118,1.246156 1.69118,4.257671 1.69118,4.257671 l 2.536766,0.371597 1.921791,-3.997328 -3.612969,0.614972 -0.691848,-3.074869 -3.536098,1.383693 -1.383689,-3.843588 -3.689842,2.646219 z m -1.69118,5.073537 c 0,0 -3.743346,1.691176 -3.743346,3.382354 0,0.398615 0.360992,0.845589 0.360992,0.845589 l -0.845589,0.845589 c 0,0 -5.073535,1.691176 -5.073535,2.536766 0,0.630265 0.845588,1.691179 0.845588,1.691179 l 1.69118,-0.845589 -0.84559,1.691178 h -0.84559 l 0.84559,3.259361 h 1.69118 l 0.92246,1.814172 0.922462,-0.845588 c 0,0 1.368714,1.443538 2.38302,1.506685 l 3.459228,-1.276071 c 0,0 -0.922458,1.460563 -2.613638,2.306152 -0.572588,1.011304 -0.84559,3.259361 -0.84559,3.259361 h 1.691178 l 0.845592,1.814173 c 2.536764,-0.845588 3.382355,-2.536767 3.382355,-2.536767 0,0 0.845588,1.691179 2.536765,2.536767 l 0.845589,-3.382355 c 0,0 1.077774,0.700781 1.691178,0.845588 0.822969,0.194267 2.536766,0 2.536766,0 l -1.691178,-4.227945 c 0,0 1.75084,1.046874 2.53677,1.691178 0.924793,0.758151 2.536766,2.536767 2.536766,2.536767 0,0 0.445664,-2.890952 0,-4.227945 -0.445667,-1.336995 -2.536769,-3.074867 -2.536769,-3.074867 h 1.69118 l 3.382354,-1.153077 -0.845589,-1.691178 -0.845587,-2.536769 c 0,0 -1.691178,-0.784087 -4.227947,-0.784087 -0.891328,0 -2.536766,0.784087 -2.536766,0.784087 v -1.691176 l -1.691178,0.845589 c 0,0 0,-3.382355 3.382356,-3.382355 0,-0.398615 -0.457638,-0.754007 -0.84559,-0.84559 -1.691176,0 -5.073532,1.691178 -5.073532,1.691178 z m 0.538104,5.381019 c 0,0 -0.02374,0.622239 -0.280126,1.039722 -0.302356,0.492323 -0.381281,1.035137 -1.226869,1.398344 -0.262269,0.112663 -0.667222,-0.536751 -0.667222,-0.536751 l -0.900653,0.55858 0.722288,-1.014404 c 0,0 -0.227877,-0.679696 0,-0.845589 0.845587,-0.615593 2.352582,-0.599902 2.352582,-0.599902 z m -6.764713,8.993992 c -1.691177,0.845588 -1.383691,2.536766 -1.383691,2.536766 h 0.84559 c 0,0 -0.221111,0.543532 0,1.691179 0.84559,0 1.691178,-0.845591 1.691178,-0.845591 0,0 -0.231988,0.845591 0,1.691179 1.222987,0 1.691178,-1.691179 1.691178,-1.691179 0,0 -6.06e-4,0.246483 0.434355,0.457478 0.410616,-0.458086 0.411233,-1.303066 0.411233,-1.303066 0,0 -0.507942,-1.042358 -0.845588,-1.030081 h -2.229281 z"
     id="path8" />
</svg>
