<?xml version="1.0" encoding="UTF-8" standalone="no"?>
<svg
   height="48"
   width="48"
   version="1.1"
   id="svg6"
   sodipodi:docname="baiji-manga-viewer.svg"
   inkscape:version="1.1.2 (0a00cf5339, 2022-02-04)"
   xmlns:inkscape="http://www.inkscape.org/namespaces/inkscape"
   xmlns:sodipodi="http://sodipodi.sourceforge.net/DTD/sodipodi-0.dtd"
   xmlns="http://www.w3.org/2000/svg"
   xmlns:svg="http://www.w3.org/2000/svg"
   xmlns:rdf="http://www.w3.org/1999/02/22-rdf-syntax-ns#"
   xmlns:cc="http://creativecommons.org/ns#"
   xmlns:dc="http://purl.org/dc/elements/1.1/">
  <metadata
     id="metadata12">
    <rdf:RDF>
      <cc:Work
         rdf:about="">
        <dc:format>image/svg+xml</dc:format>
        <dc:type
           rdf:resource="http://purl.org/dc/dcmitype/StillImage" />
      </cc:Work>
    </rdf:RDF>
  </metadata>
  <defs
     id="defs10">
    <linearGradient
       gradientUnits="userSpaceOnUse"
       gradientTransform="matrix(0.0920001,0,0,0.09064843,-21.193131,1.5846311)"
       y2="269.48999"
       y1="235.14999"
       x2="657.65002"
       x1="319.20999"
       id="a-12">
      <stop
         id="stop1076"
         offset="0"
         stop-color="#e54c18" />
      <stop
         id="stop1078"
         offset="1"
         stop-color="#fec350" />
    </linearGradient>
    <linearGradient
       id="linearGradient946"
       x1="31.833"
       x2="32.167"
       y1="51.558998"
       y2="11.098"
       gradientUnits="userSpaceOnUse"
       gradientTransform="matrix(0.83258662,0,0,0.83258662,-4.004011,0.8380211)">
      <stop
         stop-color="#f9f9f9"
         offset="0"
         id="stop5" />
      <stop
         stop-color="#f0fee6"
         offset="1"
         id="stop7-3" />
    </linearGradient>
    <linearGradient
       gradientUnits="userSpaceOnUse"
       y2="12.7"
       y1="4.2333002"
       x2="7.9373002"
       x1="7.9373002"
       id="linearGradient1166">
      <stop
         id="stop13"
         offset="0"
         stop-color="#ffffff" />
      <stop
         id="stop15"
         offset="1"
         stop-color="#b8ffe1"
         style="stop-color:#d6f2dc;stop-opacity:1" />
    </linearGradient>
    <linearGradient
       id="b"
       x1="36.75"
       x2="36.75"
       y1="51"
       y2="13"
       gradientUnits="userSpaceOnUse">
      <stop
         offset="0"
         stop-color="#8fc1ff"
         id="stop17" />
      <stop
         offset="1"
         stop-color="#c8def9"
         id="stop19" />
    </linearGradient>
    <linearGradient
       id="c"
       x1="35.167"
       x2="35.167"
       y1="13"
       y2="51"
       gradientUnits="userSpaceOnUse">
      <stop
         offset="0"
         stop-color="#428ce6"
         id="stop12" />
      <stop
         offset="1"
         stop-color="#1e75e0"
         id="stop14" />
    </linearGradient>
    <linearGradient
       id="d"
       x1="13"
       x2="22.5"
       y1="30.417"
       y2="30.417"
       gradientUnits="userSpaceOnUse">
      <stop
         offset="0"
         stop-color="#2376c8"
         id="stop7" />
      <stop
         offset="1"
         stop-color="#19468a"
         id="stop9" />
    </linearGradient>
  </defs>
  <sodipodi:namedview
     pagecolor="#ffffff"
     bordercolor="#666666"
     borderopacity="1"
     objecttolerance="10"
     gridtolerance="10"
     guidetolerance="10"
     inkscape:pageopacity="0"
     inkscape:pageshadow="2"
     inkscape:window-width="1920"
     inkscape:window-height="1022"
     id="namedview8"
     showgrid="true"
     inkscape:zoom="9.2708332"
     inkscape:cx="-11.973034"
     inkscape:cy="22.759551"
     inkscape:window-x="0"
     inkscape:window-y="0"
     inkscape:window-maximized="1"
     inkscape:current-layer="svg6"
     inkscape:document-rotation="0"
     inkscape:pagecheckerboard="0">
    <inkscape:grid
       type="xygrid"
       id="grid837" />
  </sodipodi:namedview>
  <circle
     cx="23.940615"
     cy="31.534513"
     opacity=".99"
     r="13.232998"
     transform="matrix(1.75830584759 0 0 1.75830608345 -18.15909274367 -30.97874795549)"
     id="circle2"
     style="fill:#81a1c1;fill-opacity:1" />
  <path
     style="fill:#ffffff;fill-opacity:1;stroke-width:0.839063"
     d="m 22.160936,12.735917 c -4.195315,0 -5.873444,2.51719 -5.873444,2.51719 l -2.517191,-0.839061 c 0,0 -3.356253,-1.678129 -3.356253,0.839061 0,0.839064 2.517192,4.195319 7.551573,8.390637 C 19.515011,24.934904 23,27 23,27 c 0.839065,0.839063 0.839065,0.839063 0.839065,3.356254 0,2.51719 -3.356254,2.51719 -3.356254,2.51719 l -1.678127,-0.839062 c 0,0 1.678127,-1.678128 1.678127,-4.195319 0,-2.517192 -2.51719,-3.356255 -2.51719,-3.356255 l -4.19532,3.356255 v 0.839062 L 12.93124,27.839063 7.896857,28.678125 c 0,0 -0.8390662,2.51719 0.8390626,5.034382 1.6781284,2.517191 5.8734444,0.839066 5.8734444,0.839066 0,0 1.678128,5.034382 8.390636,5.034382 10.907828,0 11.746892,-10.068763 11.746892,-10.068763 V 27 c 0,0 6.71251,-1.678129 6.71251,-3.356256 0,0 -2.517191,-5.034383 -9.229701,-5.034383 -3.356254,-4.195315 -5.034383,-5.873444 -10.068765,-5.873444 z m -0.419528,4.195319 A 1.2585954,1.2585954 0 0 1 23,18.189831 a 1.2585954,1.2585954 0 0 1 -1.258592,1.258595 1.2585954,1.2585954 0 0 1 -1.258597,-1.258595 1.2585954,1.2585954 0 0 1 1.258597,-1.258595 z"
     id="path14" />
</svg>
