<?xml version="1.0" encoding="UTF-8" standalone="no"?>
<svg
   version="1.1"
   preserveAspectRatio="xMidYMid meet"
   viewBox="0 0 480 480"
   width="48"
   height="48"
   id="svg81"
   sodipodi:docname="basingstoke.svg"
   inkscape:version="1.1.2 (0a00cf5339, 2022-02-04)"
   xmlns:inkscape="http://www.inkscape.org/namespaces/inkscape"
   xmlns:sodipodi="http://sodipodi.sourceforge.net/DTD/sodipodi-0.dtd"
   xmlns="http://www.w3.org/2000/svg"
   xmlns:svg="http://www.w3.org/2000/svg"
   xmlns:rdf="http://www.w3.org/1999/02/22-rdf-syntax-ns#"
   xmlns:cc="http://creativecommons.org/ns#"
   xmlns:dc="http://purl.org/dc/elements/1.1/">
  <metadata
     id="metadata85">
    <rdf:RDF>
      <cc:Work
         rdf:about="">
        <dc:format>image/svg+xml</dc:format>
        <dc:type
           rdf:resource="http://purl.org/dc/dcmitype/StillImage" />
      </cc:Work>
    </rdf:RDF>
  </metadata>
  <sodipodi:namedview
     pagecolor="#ffffff"
     bordercolor="#666666"
     borderopacity="1"
     objecttolerance="10"
     gridtolerance="10"
     guidetolerance="10"
     inkscape:pageopacity="0"
     inkscape:pageshadow="2"
     inkscape:window-width="1920"
     inkscape:window-height="1002"
     id="namedview83"
     showgrid="false"
     inkscape:zoom="8.0000004"
     inkscape:cx="20.249999"
     inkscape:cy="21.999999"
     inkscape:window-x="0"
     inkscape:window-y="0"
     inkscape:window-maximized="1"
     inkscape:current-layer="svg81"
     inkscape:document-rotation="0"
     inkscape:pagecheckerboard="0" />
  <defs
     id="defs11">
    <path
       d="M 470.44,566.69 C 427.92,590.72 223.32,590.81 180.55,566.94 119.76,533 72.58,478.37 48.99,412.86 38.23,382.99 67.95,160.48 124.9,108.12 177.35,59.88 247.94,30.34 325.58,30.34 c 161.93,0 290.83,128.52 290.83,287.06 0,106.71 -58.4,199.82 -145.97,249.29 z"
       id="c8j5TY2yQ"
       inkscape:connector-curvature="0" />
    <path
       d="m 303.58,126.72 c 10.64,0 19.27,-8.43 19.27,-18.83 0,-10.4 -8.63,-18.83 -19.27,-18.83 -3.86,0 -34.7,0 -38.56,0 -10.64,0 -19.27,8.43 -19.27,18.83 0,10.4 8.63,18.83 19.27,18.83 7.72,0 30.85,0 38.56,0 z"
       id="bFZqX3lTF"
       inkscape:connector-curvature="0" />
    <path
       d="m 204.95,501.27 c 10.64,0 19.28,-8.43 19.28,-18.83 0,-10.4 -8.64,-18.83 -19.28,-18.83 -3.86,0 -34.7,0 -38.55,0 -10.65,0 -19.28,8.43 -19.28,18.83 0,10.4 8.63,18.83 19.28,18.83 7.71,0 30.84,0 38.55,0 z"
       id="cKERSkAeb"
       inkscape:connector-curvature="0" />
    <path
       d="m 46.97,409.12 c 17.8,0 160.2,0 178,0 21.5,0 38.93,-16.85 38.93,-37.65 0,-20.8 -17.43,-37.65 -38.93,-37.65 -5.83,0 -52.55,0 -58.39,0 -10.75,0 -19.46,-8.43 -19.46,-18.83 0,-10.4 8.71,-18.83 19.46,-18.83 5.84,0 52.56,0 58.39,0 21.5,0 38.93,-16.86 38.93,-37.65 0,-20.8 -17.43,-37.66 -38.93,-37.66 -9.73,0 -87.58,0 -97.31,0 -10.76,0 -19.47,-8.43 -19.47,-18.82 0,-10.4 8.71,-18.83 19.47,-18.83 3.89,0 35.03,0 38.92,0 21.5,0 38.93,-16.86 38.93,-37.65 0,-20.8 -17.43,-37.66 -38.93,-37.66 -4.27,0 -38.48,0 -42.75,0 -57.5,51.58 -93.49,125.27 -93.49,207.1 0,33.01 5.87,64.69 16.63,94.13 z"
       id="a29DGWoP7"
       inkscape:connector-curvature="0" />
    <path
       d="m 469.67,567.61 c -4.35,-21.89 -24.03,-38.41 -47.66,-38.41 -1.94,0 -17.48,0 -19.43,0 0,-21 -17.39,-38.03 -38.85,-38.03 -7.77,0 -69.94,0 -77.71,0 -21.46,0 -38.85,17.03 -38.85,38.03 -1.95,0 -17.49,0 -19.43,0 -23.63,0 -43.31,16.52 -47.66,38.41 42.65,23.95 92.09,37.65 144.79,37.65 52.71,0 102.15,-13.7 144.8,-37.65 z"
       id="b6m8VAKUkP"
       inkscape:connector-curvature="0" />
    <path
       d="m 404.05,552.4 c 10.64,0 19.28,-8.43 19.28,-18.83 0,-10.4 -8.63,-18.83 -19.28,-18.83 -3.86,0 -34.7,0 -38.55,0 -10.65,0 -19.28,8.43 -19.28,18.83 0,10.4 8.63,18.83 19.28,18.83 7.71,0 30.84,0 38.55,0 z"
       id="a1FY8i5Bh"
       inkscape:connector-curvature="0" />
    <path
       d="m 423.38,151.06 c 3.51,0 31.59,0 35.1,0 9.69,0 17.55,8.29 17.55,18.52 0,10.23 -7.86,18.52 -17.55,18.52 -7.02,0 -63.17,0 -70.19,0 -19.39,0 -35.1,16.59 -35.1,37.04 0,20.46 15.71,37.05 35.1,37.05 15.79,0 142.14,0 157.93,0 9.69,0 17.55,8.29 17.55,18.52 0,10.23 -7.86,18.52 -17.55,18.52 -7.02,0 -63.17,0 -70.19,0 -19.39,0 -35.1,16.58 -35.1,37.04 0,20.45 15.71,37.04 35.1,37.04 7.02,0 63.17,0 70.19,0 9.69,0 17.55,8.29 17.55,18.52 0,10.23 -7.86,18.52 -17.55,18.52 -3.51,0 -31.59,0 -35.09,0 -19.39,0 -35.1,16.58 -35.1,37.04 0,20.46 15.71,37.04 35.1,37.04 5.26,0 47.39,0 52.65,0 33.05,-46.43 52.63,-104.14 52.63,-166.68 0,-102.92 -53.03,-192.77 -131.82,-240.77 -6.12,0 -55.09,0 -61.21,0 -19.38,0 -35.09,16.58 -35.09,37.04 0,20.46 15.71,37.04 35.09,37.04 z"
       id="c7GwQZUIj"
       inkscape:connector-curvature="0" />
    <path
       d="m 344.3,229.58 20,90.56 h -40 -40 l 20,-90.56 20,-90.56 z"
       id="czlIFIfmG"
       inkscape:connector-curvature="0" />
    <path
       d="m 344.3,410.71 20,-90.57 h -40 -40 l 20,90.57 20,90.56 z"
       id="g3s5fX1Q8e"
       inkscape:connector-curvature="0" />
  </defs>
  <circle
     r="223.62251"
     cy="242.23532"
     cx="240.41631"
     id="path970"
     style="fill:#81a1c1;fill-opacity:1;stroke:none;stroke-width:2.76503;stroke-linecap:butt;stroke-linejoin:round;stroke-miterlimit:4;stroke-dasharray:none;stroke-opacity:1" />
  <circle
     r="201.86069"
     cy="242.23532"
     cx="240.41631"
     id="path968"
     style="fill:#ffffff;fill-opacity:0.27840838;stroke:none;stroke-width:3.65407;stroke-linecap:butt;stroke-linejoin:round;stroke-miterlimit:4;stroke-dasharray:none;stroke-opacity:1" />
  <path
     id="rect975"
     style="fill:#ffffff;fill-opacity:1;stroke:none;stroke-width:63.7369;stroke-linecap:round;stroke-linejoin:round"
     d="m 159.0426,143.54516 c -28.9303,0 -52.21585,23.29177 -52.21585,52.22207 v 32.09261 1.33201 36.57412 c 0,17.77892 14.30749,32.09262 32.08639,32.09262 h 33.10717 v 41.09298 c 0,12.89181 10.38095,23.27274 23.27275,23.27274 h 90.24648 c 12.8918,0 23.27275,-10.38093 23.27275,-23.27274 v -41.09298 h 33.10095 c 17.77891,0 32.09262,-14.3137 32.09262,-32.09262 v -36.57412 -1.33201 -32.09261 c 0,-28.9303 -23.29179,-52.22207 -52.22208,-52.22207 z m 13.77443,54.90476 a 39.312866,39.312866 0 0 1 39.31284,39.31282 39.312866,39.312866 0 0 1 -39.31284,39.31283 39.312866,39.312866 0 0 1 -39.31282,-39.31283 39.312866,39.312866 0 0 1 39.31282,-39.31282 z m 135.19854,0 a 39.312866,39.312866 0 0 1 39.31283,39.31282 39.312866,39.312866 0 0 1 -39.31283,39.31283 39.312866,39.312866 0 0 1 -39.31282,-39.31283 39.312866,39.312866 0 0 1 39.31282,-39.31282 z" />
</svg>
