<?xml version="1.0" encoding="UTF-8" standalone="no"?>
<svg
   height="48"
   width="48"
   version="1.1"
   id="svg6"
   sodipodi:docname="beekeeper-studio.svg"
   inkscape:version="1.1.2 (0a00cf5339, 2022-02-04)"
   xmlns:inkscape="http://www.inkscape.org/namespaces/inkscape"
   xmlns:sodipodi="http://sodipodi.sourceforge.net/DTD/sodipodi-0.dtd"
   xmlns="http://www.w3.org/2000/svg"
   xmlns:svg="http://www.w3.org/2000/svg"
   xmlns:rdf="http://www.w3.org/1999/02/22-rdf-syntax-ns#"
   xmlns:cc="http://creativecommons.org/ns#"
   xmlns:dc="http://purl.org/dc/elements/1.1/">
  <metadata
     id="metadata12">
    <rdf:RDF>
      <cc:Work
         rdf:about="">
        <dc:format>image/svg+xml</dc:format>
        <dc:type
           rdf:resource="http://purl.org/dc/dcmitype/StillImage" />
      </cc:Work>
    </rdf:RDF>
  </metadata>
  <defs
     id="defs10" />
  <sodipodi:namedview
     pagecolor="#ffffff"
     bordercolor="#666666"
     borderopacity="1"
     objecttolerance="10"
     gridtolerance="10"
     guidetolerance="10"
     inkscape:pageopacity="0"
     inkscape:pageshadow="2"
     inkscape:window-width="1920"
     inkscape:window-height="1002"
     id="namedview8"
     showgrid="true"
     inkscape:zoom="3.4766082"
     inkscape:cx="-52.925147"
     inkscape:cy="57.81497"
     inkscape:window-x="0"
     inkscape:window-y="0"
     inkscape:window-maximized="1"
     inkscape:current-layer="svg6"
     inkscape:pagecheckerboard="0">
    <inkscape:grid
       type="xygrid"
       id="grid822" />
  </sodipodi:namedview>
  <path
     d="m44.322082 27.405077a19.729762 19.729765 0 0 1 -19.729762 19.729765 19.729762 19.729765 0 0 1 -19.7297621-19.729765 19.729762 19.729765 0 0 1 19.7297621-19.7297632 19.729762 19.729765 0 0 1 19.729762 19.7297632z"
     opacity=".99"
     transform="matrix(1.1503549 0 0 1.1503549 -4.486125 -7.525565)"
     id="path2"
     style="fill:#ebcb8b;fill-opacity:1" />
  <path
     id="path673"
     style="fill:#ffffff;fill-opacity:1;stroke-width:0.121596"
     d="M 13.697266 6.28125 A 20.446229 20.446232 0 0 0 8.2167969 10.791016 L 8.2167969 14.203125 C 8.2167969 26.582027 8.2436039 28.728936 8.4042969 29.650391 C 8.8304461 32.094128 10.200398 34.383338 12.109375 35.84375 C 12.870193 36.425793 18.655455 39.817648 19.605469 40.238281 C 20.322399 40.555712 21.354795 40.868212 22.179688 41.019531 C 22.491947 41.076931 23.350282 41.102882 24.085938 41.076172 C 25.617216 41.020582 26.782783 40.734581 28.015625 40.113281 C 29.199588 39.51661 34.446181 36.440113 35.113281 35.951172 C 36.720629 34.77308 38.135843 32.7213 38.753906 30.673828 C 39.012869 29.815936 39.029149 29.516767 39.072266 25.171875 C 39.110106 21.359781 39.086408 20.421785 38.929688 19.664062 C 38.536338 17.762021 37.710544 16.177403 36.382812 14.779297 C 35.335088 13.67604 34.950613 13.411562 31.398438 11.349609 C 27.459599 9.0632134 26.537326 8.6797794 24.480469 8.4746094 L 23.660156 8.3925781 L 23.660156 11.554688 L 23.660156 14.714844 L 24.582031 14.792969 C 31.420868 15.371062 35.621647 22.614895 32.779297 28.931641 C 31.565352 31.629469 29.12649 33.664772 26.152344 34.460938 C 24.857739 34.807482 22.63761 34.83365 21.410156 34.517578 C 17.769164 33.580013 15.068212 30.892837 14.017578 27.164062 C 13.760175 26.2505 13.757823 26.100918 13.71875 12.957031 L 13.697266 6.28125 z M 21.25 8.7910156 C 21.19527 8.7910156 20.868013 8.8775668 20.521484 8.9804688 L 19.890625 9.1660156 L 19.890625 12.324219 C 19.890625 14.060447 19.928346 15.480469 19.972656 15.480469 C 20.016926 15.480469 20.344182 15.38793 20.701172 15.275391 L 21.349609 15.070312 L 21.349609 11.931641 C 21.349609 10.205036 21.30475 8.7910156 21.25 8.7910156 z M 17.382812 10.615234 C 17.340792 10.615234 17.011592 10.784693 16.652344 10.990234 L 16 11.363281 L 16 14.839844 L 16 18.314453 L 16.716797 17.65625 L 17.431641 17 L 17.445312 13.808594 C 17.452913 12.053054 17.424813 10.615234 17.382812 10.615234 z " />
</svg>
