<?xml version="1.0" encoding="UTF-8" standalone="no"?>
<svg
   height="48"
   width="48"
   version="1.1"
   id="svg10"
   sodipodi:docname="delir.svg"
   inkscape:version="1.1.2 (0a00cf5339, 2022-02-04)"
   xmlns:inkscape="http://www.inkscape.org/namespaces/inkscape"
   xmlns:sodipodi="http://sodipodi.sourceforge.net/DTD/sodipodi-0.dtd"
   xmlns="http://www.w3.org/2000/svg"
   xmlns:svg="http://www.w3.org/2000/svg">
  <defs
     id="defs14" />
  <sodipodi:namedview
     id="namedview12"
     pagecolor="#ffffff"
     bordercolor="#666666"
     borderopacity="1.0"
     inkscape:pageshadow="2"
     inkscape:pageopacity="0.0"
     inkscape:pagecheckerboard="0"
     showgrid="false"
     inkscape:zoom="8.2500001"
     inkscape:cx="11.393939"
     inkscape:cy="31.151515"
     inkscape:window-width="1920"
     inkscape:window-height="1022"
     inkscape:window-x="0"
     inkscape:window-y="0"
     inkscape:window-maximized="1"
     inkscape:current-layer="svg10" />
  <g
     fill="#626c97"
     opacity="0.99"
     transform="matrix(1.1503549,0,0,1.1503549,-4.486125,-7.525565)"
     id="g6">
    <path
       d="M 44.322082,27.405077 A 19.729762,19.729765 0 0 1 24.59232,47.134842 19.729762,19.729765 0 0 1 4.8625579,27.405077 19.729762,19.729765 0 0 1 24.59232,7.6753138 19.729762,19.729765 0 0 1 44.322082,27.405077 Z"
       id="path2" />
    <path
       id="path4"
       style="fill:#8690ba;fill-opacity:1;stroke-width:1.15035"
       d="M 23.804688,1.3046875 A 22.696228,22.696232 0 0 0 1.1074219,24 22.696228,22.696232 0 0 0 23.804688,46.695312 22.696228,22.696232 0 0 0 46.5,24 22.696228,22.696232 0 0 0 23.804688,1.3046875 Z"
       transform="matrix(0.86929694,0,0,0.86929694,3.8997748,6.5419507)" />
  </g>
  <path
     style="fill:#ffffff;stroke-width:0.63418"
     d="m 28.460166,39.639314 c -0.846233,-1.453229 -1.762209,-2.866445 -2.570284,-4.341408 1.749203,-1.436256 3.599309,-2.746947 5.341522,-4.191998 -2.512293,-7.628116 -5.047361,-15.248998 -7.604725,-22.8621212 -0.02865,0.9689941 0.180272,2.2402972 0.253668,3.3293032 0.557148,5.998045 1.107111,11.996756 1.659311,17.995258 -0.497591,0.883978 -0.950288,1.795878 -1.502784,2.646951 -0.607767,-0.822701 -1.086609,-1.736425 -1.628806,-2.604499 0.329017,-5.306121 0.686406,-10.610646 0.98128,-15.918758 -0.38481,0.473523 -0.851511,2.061137 -1.266799,2.976948 -1.911526,4.843207 -3.86327,9.674499 -5.746531,14.526406 1.907854,1.441181 3.932498,2.768587 5.867348,4.190927 -0.350678,1.088575 -1.102847,2.078002 -1.603481,3.126764 -0.312774,0.547987 -1.013834,1.704016 -5.78e-4,0.758838 1.147377,-0.861989 2.274569,-1.750829 3.429889,-2.602169 1.486279,1.011607 2.936086,2.075997 4.42315,3.086458 l -0.03221,-0.116895 z"
     id="path16" />
</svg>
