<?xml version="1.0" encoding="UTF-8" standalone="no"?>
<svg
   height="48"
   width="48"
   version="1.1"
   id="svg10"
   sodipodi:docname="droidcam.svg"
   inkscape:version="1.1.2 (0a00cf5339, 2022-02-04)"
   xmlns:inkscape="http://www.inkscape.org/namespaces/inkscape"
   xmlns:sodipodi="http://sodipodi.sourceforge.net/DTD/sodipodi-0.dtd"
   xmlns="http://www.w3.org/2000/svg"
   xmlns:svg="http://www.w3.org/2000/svg"
   xmlns:rdf="http://www.w3.org/1999/02/22-rdf-syntax-ns#"
   xmlns:cc="http://creativecommons.org/ns#"
   xmlns:dc="http://purl.org/dc/elements/1.1/">
  <metadata
     id="metadata16">
    <rdf:RDF>
      <cc:Work
         rdf:about="">
        <dc:format>image/svg+xml</dc:format>
        <dc:type
           rdf:resource="http://purl.org/dc/dcmitype/StillImage" />
      </cc:Work>
    </rdf:RDF>
  </metadata>
  <defs
     id="defs14" />
  <sodipodi:namedview
     pagecolor="#ffffff"
     bordercolor="#666666"
     borderopacity="1"
     objecttolerance="10"
     gridtolerance="10"
     guidetolerance="10"
     inkscape:pageopacity="0"
     inkscape:pageshadow="2"
     inkscape:window-width="1920"
     inkscape:window-height="1056"
     id="namedview12"
     showgrid="false"
     inkscape:zoom="6.9532167"
     inkscape:cx="24.161479"
     inkscape:cy="-2.8763666"
     inkscape:window-x="0"
     inkscape:window-y="0"
     inkscape:window-maximized="1"
     inkscape:current-layer="svg10"
     inkscape:pagecheckerboard="0" />
  <g
     fill="#5f8dd3"
     opacity="0.99"
     transform="matrix(1.1503549,0,0,1.1503549,-4.486125,-7.525565)"
     id="g6"
     style="fill:#9b9b67;fill-opacity:1">
    <path
       d="M 44.322082,27.405077 A 19.729762,19.729765 0 0 1 24.59232,47.134842 19.729762,19.729765 0 0 1 4.8625579,27.405077 19.729762,19.729765 0 0 1 24.59232,7.6753138 19.729762,19.729765 0 0 1 44.322082,27.405077 Z"
       id="path4"
       style="fill:#a3be8c;fill-opacity:1" />
  </g>
  <path
     style="fill:#ffffff;fill-opacity:1;stroke-width:0.763691"
     d="m 17.700203,10.380331 -0.623483,0.411677 1.581079,2.371621 c -2.140713,1.357092 -3.660132,3.657036 -4.22715,6.127432 H 33.17391 c -0.56601,-2.47082 -2.083801,-4.769449 -4.224171,-6.127432 l 1.581079,-2.371621 -0.62348,-0.411677 -1.607929,2.407416 c -1.383818,-0.738783 -2.92697,-1.127754 -4.495639,-1.133605 -1.570262,0.0029 -3.115357,0.390042 -4.501605,1.127639 z m 1.903263,4.328579 c 0.632664,0 1.145538,0.512875 1.145538,1.145538 0,0.632664 -0.512874,1.145536 -1.145538,1.145536 -0.632662,0 -1.145538,-0.512872 -1.145538,-1.145536 0,-0.632663 0.512876,-1.145538 1.145538,-1.145538 z m 8.400607,0 c 0.632663,0 1.145538,0.512875 1.145538,1.145538 0,0.632664 -0.512875,1.145536 -1.145538,1.145536 -0.63266,0 -1.145537,-0.512872 -1.145537,-1.145536 0,-0.632663 0.512877,-1.145538 1.145537,-1.145538 z m -16.443234,6.109532 c -0.842376,0.01415 -1.515088,0.767012 -1.503519,1.682509 v 8.854052 c 0,2.21322 3.05477,2.21322 3.05477,0 v -8.854052 c 0.01186,-0.935815 -0.690185,-1.697224 -1.551251,-1.682509 z m 3.078629,0 v 1.202218 2.100151 8.400608 2.998087 c 0,1.163485 0.909283,2.100154 2.037507,2.100154 h 3.308338 v -1.527383 h 3.054766 v -1.470705 -0.09248 c -0.399655,-0.06963 -0.994083,-0.187528 -1.297679,-0.331126 -2.42519,-0.869233 -4.044508,-3.166348 -4.048162,-5.742601 0,-3.374203 2.735328,-6.109535 6.109532,-6.109535 3.374202,0 6.109534,2.735332 6.109534,6.109535 -0.0012,2.537584 -1.570958,4.810233 -3.943753,5.709785 -0.346049,0.159012 -0.974183,0.292342 -1.402091,0.366932 v 0.0895 1.470704 h 3.054769 v 1.527385 h 3.308336 c 1.128227,0 2.037504,-0.936669 2.037504,-2.100154 v -2.998075 -8.400609 -2.100152 -1.202218 z m 21.359503,0 c -0.842377,0.01415 -1.515089,0.767012 -1.503518,1.682509 v 8.854052 c 0,2.21322 3.054767,2.21322 3.054767,0 v -8.854052 c 0.01186,-0.935815 -0.690179,-1.697224 -1.551249,-1.682509 z M 23.80377,25.400591 c -1.6871,0 -3.054766,1.367668 -3.054766,3.05477 0,1.687099 1.367666,3.054765 3.054766,3.054765 1.687103,0 3.054766,-1.367666 3.054766,-3.054765 0,-1.687102 -1.367663,-3.05477 -3.054766,-3.05477 z m 0,1.017264 c 1.125513,-5.68e-4 2.038053,0.911994 2.037504,2.037506 5.67e-4,1.125507 -0.911991,2.038053 -2.037504,2.037502 -1.12551,5.67e-4 -2.038054,-0.911995 -2.037506,-2.037502 7.18e-4,-0.203375 0.03189,-0.405484 0.09248,-0.599619 0.164555,0.36483 0.527548,0.599441 0.927769,0.599619 0.561592,-5.67e-4 1.016713,-0.455671 1.017259,-1.017263 -1.74e-4,-0.400219 -0.234778,-0.763224 -0.599614,-0.927765 0.194139,-0.06059 0.396245,-0.09177 0.599614,-0.09248 z"
     id="path8" />
</svg>
