<?xml version="1.0" encoding="UTF-8" standalone="no"?>
<svg
   height="48"
   width="48"
   version="1.1"
   id="svg10"
   sodipodi:docname="gzdoom"
   inkscape:version="1.4 (1:1.4+202410161351+e7c3feb100)"
   xmlns:inkscape="http://www.inkscape.org/namespaces/inkscape"
   xmlns:sodipodi="http://sodipodi.sourceforge.net/DTD/sodipodi-0.dtd"
   xmlns="http://www.w3.org/2000/svg"
   xmlns:svg="http://www.w3.org/2000/svg">
  <defs
     id="defs14">
    <linearGradient
       id="b-36"
       x1="5.822"
       x2="12.294"
       y1="5.441"
       y2="13.421"
       gradientTransform="matrix(1.933632,0,0,1.933632,0.56961517,0.69055681)"
       gradientUnits="userSpaceOnUse">
      <stop
         offset="0"
         stop-color="#deb247"
         id="stop7-7" />
      <stop
         offset="1"
         stop-color="#de7947"
         id="stop9-5" />
    </linearGradient>
  </defs>
  <sodipodi:namedview
     id="namedview12"
     pagecolor="#ffffff"
     bordercolor="#666666"
     borderopacity="1.0"
     inkscape:pageshadow="2"
     inkscape:pageopacity="0.0"
     inkscape:pagecheckerboard="0"
     showgrid="false"
     inkscape:zoom="8.2499999"
     inkscape:cx="9.2727273"
     inkscape:cy="33.39394"
     inkscape:window-width="1920"
     inkscape:window-height="1030"
     inkscape:window-x="0"
     inkscape:window-y="0"
     inkscape:window-maximized="1"
     inkscape:current-layer="svg10"
     inkscape:showpageshadow="2"
     inkscape:deskcolor="#d1d1d1" />
  <g
     fill="#626c97"
     opacity="0.99"
     transform="matrix(1.1503549,0,0,1.1503549,-4.486125,-7.525565)"
     id="g6">
    <path
       d="M 44.322082,27.405077 A 19.729762,19.729765 0 0 1 24.59232,47.134842 19.729762,19.729765 0 0 1 4.8625579,27.405077 19.729762,19.729765 0 0 1 24.59232,7.6753138 19.729762,19.729765 0 0 1 44.322082,27.405077 Z"
       id="path2" />
    <path
       id="path4"
       style="fill:#8690ba;fill-opacity:1;stroke-width:1.15035"
       d="M 23.804688,1.3046875 A 22.696228,22.696232 0 0 0 1.1074219,24 22.696228,22.696232 0 0 0 23.804688,46.695312 22.696228,22.696232 0 0 0 46.5,24 22.696228,22.696232 0 0 0 23.804688,1.3046875 Z"
       transform="matrix(0.86929694,0,0,0.86929694,3.8997748,6.5419507)" />
  </g>
  <path
     style="fill:none;stroke:#ffffff;stroke-width:5.19584;stroke-linejoin:round;stroke-opacity:0.348714"
     d="M 23.599459,17.463964 H 11.908803 c 0,0 -2.5979244,2.597925 -2.5979244,7.144294 0,4.546361 2.5979244,5.845326 2.5979244,5.845326 h 9.092732 v -6.494809"
     id="path4-3" />
  <path
     style="fill:none;stroke:#ffffff;stroke-width:5.19584;stroke-linejoin:round;stroke-opacity:1"
     d="m 21.001535,17.463964 h 15.58754 l -12.989616,12.98962 h 15.587542"
     id="path6" />
</svg>
