<?xml version="1.0" encoding="UTF-8" standalone="no"?>
<svg
   height="48"
   width="48"
   version="1.1"
   id="svg6"
   sodipodi:docname="info.febvre.Komikku..svg"
   inkscape:version="1.4 (1:1.4+202410161351+e7c3feb100)"
   xmlns:inkscape="http://www.inkscape.org/namespaces/inkscape"
   xmlns:sodipodi="http://sodipodi.sourceforge.net/DTD/sodipodi-0.dtd"
   xmlns="http://www.w3.org/2000/svg"
   xmlns:svg="http://www.w3.org/2000/svg"
   xmlns:rdf="http://www.w3.org/1999/02/22-rdf-syntax-ns#"
   xmlns:cc="http://creativecommons.org/ns#"
   xmlns:dc="http://purl.org/dc/elements/1.1/">
  <metadata
     id="metadata12">
    <rdf:RDF>
      <cc:Work
         rdf:about="">
        <dc:format>image/svg+xml</dc:format>
        <dc:type
           rdf:resource="http://purl.org/dc/dcmitype/StillImage" />
      </cc:Work>
    </rdf:RDF>
  </metadata>
  <defs
     id="defs10" />
  <sodipodi:namedview
     pagecolor="#ffffff"
     bordercolor="#666666"
     borderopacity="1"
     objecttolerance="10"
     gridtolerance="10"
     guidetolerance="10"
     inkscape:pageopacity="0"
     inkscape:pageshadow="2"
     inkscape:window-width="1920"
     inkscape:window-height="1056"
     id="namedview8"
     showgrid="false"
     inkscape:zoom="1.6720129"
     inkscape:cx="-177.03213"
     inkscape:cy="-2.0932853"
     inkscape:window-x="0"
     inkscape:window-y="0"
     inkscape:window-maximized="1"
     inkscape:current-layer="svg6"
     inkscape:document-rotation="0"
     inkscape:showpageshadow="2"
     inkscape:pagecheckerboard="0"
     inkscape:deskcolor="#d1d1d1" />
  <circle
     cx="23.940615"
     cy="31.534513"
     fill="#5e81ac"
     opacity=".99"
     r="13.232998"
     transform="matrix(1.75830584759 0 0 1.75830608345 -18.15909274367 -30.97874795549)"
     id="circle2"
     style="fill:#bf616a;fill-opacity:1" />
  <path
     id="circle937"
     style="opacity:0.99;fill:#f3f7f9;fill-opacity:1"
     transform="matrix(1.7583058,0,0,1.7583061,-18.159093,-30.978748)"
     d="m 37.173613,31.534513 c 0,1.827096 -0.370288,3.567706 -1.039915,5.15088 -0.669626,1.583174 -1.63859,3.008912 -2.83594,4.206263 -2.394702,2.394701 -5.702952,3.875855 -9.357143,3.875855 -1.827096,0 -3.567706,-0.370288 -5.15088,-1.039915 -1.583174,-0.669626 -3.008913,-1.638589 -4.206263,-2.83594 -1.19735,-1.197351 -2.166314,-2.623089 -2.83594,-4.206263 z"
     sodipodi:nodetypes="cssssscc" />
  <path
     style="fill:#f2f6f8;fill-opacity:1;stroke-width:0.858885"
     d="M 17.939975,10.511538 C 17.41176,10.180009 17.19532,9.9128966 17.36366,9.7986636 c 0.07385,-0.04983 1.077045,-0.128841 2.229667,-0.174353 1.603544,-0.06441 2.60844,-0.2138583 4.280691,-0.6355773 3.250885,-0.820236 3.552352,-0.853733 4.259217,-0.474105 1.176674,0.631282 1.485012,1.1921353 0.934467,1.6988777 -0.359016,0.330673 -0.681955,0.354721 -5.907418,0.443186 -3.744743,0.06272 -4.94289,0.02922 -5.220309,-0.14517 z m -3.817749,18.438567 -0.321242,-0.632138 0.0146,-5.55098 c 0.01558,-5.933186 -0.01883,-6.493181 -0.444042,-7.341759 -0.603797,-1.205018 0.353003,-1.752988 1.514215,-0.866617 0.583184,0.444902 0.583184,0.445762 0.644166,1.350169 0.08417,1.252258 0.07901,6.362627 -0.0094,9.799031 -0.08846,3.413213 -0.174352,3.873576 -0.723182,3.873576 -0.268816,0 -0.431161,-0.152018 -0.675084,-0.631282 z m 3.936274,-4.24805 c -0.200127,-0.853732 -0.31264,-2.675429 -0.382205,-6.214039 -0.0644,-3.256039 -0.09446,-3.703516 -0.288587,-4.304739 -0.119395,-0.368461 -0.217299,-0.724899 -0.217299,-0.791033 0,-0.281704 0.81079,-0.09017 1.034098,0.243918 0.189804,0.284301 0.390795,0.337542 0.902688,0.242198 0.361593,-0.06785 4.739335,-0.83226 4.739335,-0.83226 4.878472,-0.967966 6.303365,-0.827108 6.507781,0.644164 0.03182,0.233628 -0.02759,0.913855 -0.132281,1.511639 -0.290307,1.661947 -1.854333,8.973645 -1.946236,9.103335 -0.04467,0.06356 -2.031265,0.170913 -4.413815,0.239635 -2.620462,0.07473 -4.91369,0.213014 -5.025341,0.350425 -0.294592,0.359874 -0.670792,0.266252 -0.778152,-0.193246 z m 4.085721,-1.503051 c 0.223305,-0.136566 0.383923,-1.070169 0.491284,-2.8515 0.0498,-0.833979 0.03084,-1.057288 -0.09791,-1.17066 -0.08846,-0.07729 -0.696557,-0.01206 -1.351025,0.144292 -1.488451,0.355578 -2.111144,0.541097 -2.008937,2.41347 0.03778,0.693978 0.119395,1.336425 0.181233,1.42661 0.132281,0.192401 2.483042,0.223305 2.785369,0.03779 z m 4.921416,-1.402559 c 0.336685,-1.39569 0.900972,-5.301044 0.964533,-6.668392 0.05068,-1.11741 0.04294,-1.168083 -0.210418,-1.313237 -0.408831,-0.234471 -2.42378,0.02564 -2.723529,0.352142 -0.148578,0.161467 -0.35558,0.704286 -0.465516,1.221339 -0.342696,1.618141 -0.334107,1.634461 0.875204,1.720347 0.68711,0.04811 1.116551,0.176074 1.194713,0.35472 0.211294,0.482695 -0.04294,0.754963 -0.909562,0.977414 -1.162072,0.298032 -1.240233,0.355577 -1.393112,1.038391 -0.207854,0.927598 -0.28943,2.406598 -0.162341,2.948558 0.104791,0.44576 0.176071,0.467233 1.351889,0.407971 l 1.241946,-0.06271 z m -5.957234,-3.701799 c 1.448084,-0.412264 1.498757,-0.460363 1.435199,-1.33471 l -0.155459,-1.308943 c -0.101342,-0.60208 -0.119394,-0.614103 -0.913855,-0.608948 -0.968825,0.0068 -2.050161,0.276574 -2.220221,0.807352 -0.163187,0.508459 -0.164907,2.46672 -0.0025,2.616168 0.181233,0.167471 0.650177,0.171788 1.856911,-0.170912 z m 9.945045,11.216192 c -0.05756,-0.129684 -0.104792,-0.349566 -0.104792,-0.487847 0,-0.139135 -0.106508,-0.409687 -0.236192,-0.60208 -0.219864,-0.326377 -0.657047,-0.348708 -6.681273,-0.348708 -5.26841,0 -6.482873,-0.04895 -6.652933,-0.267971 -0.280859,-0.362449 -0.121964,-0.566005 0.553124,-0.707721 0.910417,-0.191525 8.347513,-0.73263 10.714604,-0.779869 1.247102,-0.02499 2.309542,-0.103911 2.361076,-0.176918 0.09191,-0.127966 1.071032,-4.759087 1.071032,-4.759087 0,0 0.246515,-1.819122 0.340977,-2.954569 0.200971,-2.400586 0.292869,-2.872116 0.556558,-2.872116 0.217299,8.63e-4 1.24882,1.057288 1.466979,1.503052 0.11508,0.236193 0.127115,0.441467 0.06185,1.099375 -0.178638,1.798505 -1.436059,7.861383 -1.99004,9.592038 -0.487847,1.526241 -1.191275,2.373962 -1.460964,1.762434 z"
     id="path6" />
</svg>
