<?xml version="1.0" encoding="UTF-8" standalone="no"?>
<svg
   height="48"
   width="48"
   version="1.1"
   id="svg6"
   sodipodi:docname="LanguageTool.svg"
   inkscape:version="1.1.2 (0a00cf5339, 2022-02-04)"
   xmlns:inkscape="http://www.inkscape.org/namespaces/inkscape"
   xmlns:sodipodi="http://sodipodi.sourceforge.net/DTD/sodipodi-0.dtd"
   xmlns="http://www.w3.org/2000/svg"
   xmlns:svg="http://www.w3.org/2000/svg"
   xmlns:rdf="http://www.w3.org/1999/02/22-rdf-syntax-ns#"
   xmlns:cc="http://creativecommons.org/ns#"
   xmlns:dc="http://purl.org/dc/elements/1.1/">
  <metadata
     id="metadata12">
    <rdf:RDF>
      <cc:Work
         rdf:about="">
        <dc:format>image/svg+xml</dc:format>
        <dc:type
           rdf:resource="http://purl.org/dc/dcmitype/StillImage" />
      </cc:Work>
    </rdf:RDF>
  </metadata>
  <defs
     id="defs10">
    <linearGradient
       gradientUnits="userSpaceOnUse"
       gradientTransform="matrix(0.0920001,0,0,0.09064843,-21.193131,1.5846311)"
       y2="269.48999"
       y1="235.14999"
       x2="657.65002"
       x1="319.20999"
       id="a-12">
      <stop
         id="stop1076"
         offset="0"
         stop-color="#e54c18" />
      <stop
         id="stop1078"
         offset="1"
         stop-color="#fec350" />
    </linearGradient>
    <linearGradient
       id="linearGradient946"
       x1="31.833"
       x2="32.167"
       y1="51.558998"
       y2="11.098"
       gradientUnits="userSpaceOnUse"
       gradientTransform="matrix(0.83258662,0,0,0.83258662,-4.004011,0.8380211)">
      <stop
         stop-color="#f9f9f9"
         offset="0"
         id="stop5" />
      <stop
         stop-color="#f0fee6"
         offset="1"
         id="stop7-3" />
    </linearGradient>
    <linearGradient
       gradientUnits="userSpaceOnUse"
       y2="12.7"
       y1="4.2333002"
       x2="7.9373002"
       x1="7.9373002"
       id="linearGradient1166">
      <stop
         id="stop13"
         offset="0"
         stop-color="#ffffff" />
      <stop
         id="stop15"
         offset="1"
         stop-color="#b8ffe1"
         style="stop-color:#d6f2dc;stop-opacity:1" />
    </linearGradient>
  </defs>
  <sodipodi:namedview
     pagecolor="#ffffff"
     bordercolor="#666666"
     borderopacity="1"
     objecttolerance="10"
     gridtolerance="10"
     guidetolerance="10"
     inkscape:pageopacity="0"
     inkscape:pageshadow="2"
     inkscape:window-width="1920"
     inkscape:window-height="996"
     id="namedview8"
     showgrid="true"
     inkscape:zoom="4.6354166"
     inkscape:cx="-3.2359551"
     inkscape:cy="40.341574"
     inkscape:window-x="0"
     inkscape:window-y="0"
     inkscape:window-maximized="1"
     inkscape:current-layer="svg6"
     inkscape:document-rotation="0"
     inkscape:pagecheckerboard="0">
    <inkscape:grid
       type="xygrid"
       id="grid837" />
  </sodipodi:namedview>
  <ellipse
     cx="23.935831"
     cy="24.468578"
     opacity="0.99"
     id="circle2"
     style="fill:#ebcb8b;fill-opacity:1;stroke-width:1.75831"
     rx="23.267658"
     ry="23.26766" />
  <path
     id="rect979"
     style="fill:#434c5e;fill-opacity:1;stroke-width:1.4053;stroke-linecap:round;stroke-linejoin:round"
     d="m 21.83932,10.536221 c -0.811322,0 -1.464197,0.65368 -1.464197,1.465 l -0.309056,2.218773 a 10.959279,10.959279 0 0 0 -3.073692,1.776465 l -2.069464,-0.839667 c -0.702624,-0.40566 -1.596369,-0.166406 -2.002033,0.536231 l -2.08873,3.618752 c -0.405661,0.702623 -0.167197,1.596373 0.535427,2.002035 l 1.760409,1.371079 a 10.959279,10.959279 0 0 0 -0.151717,1.783688 10.959279,10.959279 0 0 0 0.14931,1.775661 l -1.770845,1.379911 c -0.639948,0.498707 -0.941892,1.298608 -0.53623,2.001231 l 2.089532,3.618753 c 0.405662,0.702626 1.249361,0.841888 2.00123,0.537032 l 2.079901,-0.842876 a 10.959279,10.959279 0 0 0 3.076098,1.779674 l 0.30986,2.218773 c 0.111921,0.803567 0.652875,1.464199 1.464197,1.464199 h 4.179868 c 0.811321,0 1.352276,-0.660632 1.464198,-1.464199 l 0.309054,-2.214759 a 10.959279,10.959279 0 0 0 3.090549,-1.783688 l 2.079098,0.842876 c 0.751872,0.304856 1.59557,0.165588 2.00123,-0.537032 L 37.05285,29.62538 c 0.405662,-0.702623 0.104528,-1.502524 -0.535428,-2.001231 L 34.746578,26.244238 A 10.959279,10.959279 0 0 0 34.89589,24.468577 10.959279,10.959279 0 0 0 34.747386,22.681678 L 36.50378,21.31381 c 0.702623,-0.405662 0.94189,-1.299412 0.536231,-2.002035 l -2.089538,-3.618752 c -0.405661,-0.702628 -1.298607,-0.941891 -2.00123,-0.536231 l -2.065451,0.837258 a 10.959279,10.959279 0 0 0 -3.092958,-1.783688 l -0.307448,-2.209141 c 0,-0.81132 -0.652877,-1.465 -1.464198,-1.465 z m 2.095954,5.570212 a 8.6681817,8.3621691 0 0 1 8.66879,8.362144 8.6681817,8.3621691 0 0 1 -8.66879,8.362947 8.6681817,8.3621691 0 0 1 -8.667988,-8.362947 8.6681817,8.3621691 0 0 1 8.667988,-8.362144 z m -2.913143,3.768866 -0.804346,0.01685 c -0.17796,0.0045 -0.318496,0.151705 -0.314675,0.329926 l 0.0096,0.44231 -2.51097,0.05299 c -0.17796,0.0045 -0.318461,0.150275 -0.314675,0.32832 l 0.01847,0.859735 c 0.0037,0.177535 0.150353,0.317691 0.32832,0.31387 l 4.806809,-0.10195 c -0.117017,0.87075 -0.558539,1.806515 -1.311677,2.780691 -0.509745,-0.779268 -0.8423,-1.540051 -1.033929,-2.046185 -0.04837,-0.127642 -0.17264,-0.209748 -0.309056,-0.207106 l -0.789093,0.01766 c -0.102478,8.22e-4 -0.199484,0.05272 -0.258482,0.137273 -0.05884,0.08435 -0.07413,0.190708 -0.04095,0.288185 0.199943,0.586041 0.656536,1.734473 1.47945,2.89468 -0.923111,0.936266 -1.84787,1.618569 -2.205931,1.869582 -0.142493,0.100039 -0.181351,0.294325 -0.08589,0.439902 l 0.412609,0.626941 c 0.04752,0.0722 0.121973,0.12233 0.207107,0.138874 0.02305,0.0045 0.04541,0.004 0.06822,0.004 0.06265,-0.0022 0.124474,-0.01937 0.176603,-0.05619 0.368845,-0.253738 1.323558,-0.946739 2.319117,-1.941828 0.384323,0.383829 1.283115,1.053433 1.814995,1.423258 0.08113,0.05654 0.183901,0.07198 0.278551,0.04415 0.09471,-0.02938 0.172275,-0.101391 0.20791,-0.193461 l 0.279353,-0.730492 c 0.05651,-0.14661 -0.0022,-0.311871 -0.137273,-0.391739 -0.345804,-0.204473 -0.996795,-0.625308 -1.533234,-1.179224 1.122806,-1.371938 1.750652,-2.700545 1.86878,-3.948679 l 0.255271,-0.0048 c 0.17796,-0.0045 0.318459,-0.150275 0.314673,-0.328321 l -0.01845,-0.859736 c -0.0039,-0.177755 -0.150307,-0.317671 -0.328321,-0.313871 l -2.510971,0.05299 -0.0096,-0.442309 c -0.0039,-0.178182 -0.150291,-0.320033 -0.32832,-0.316279 z m 7.117093,0.863748 -1.791716,0.03773 c -0.141779,0.0022 -0.264073,0.09954 -0.302633,0.236006 l -1.990794,7.041635 c -0.02768,0.09827 -0.0076,0.20306 0.05539,0.284171 0.06248,0.08081 0.159395,0.12744 0.261693,0.125219 l 1.110992,-0.02489 c 0.144668,-0.0022 0.269291,-0.102587 0.305042,-0.242426 l 0.443112,-1.735525 2.18827,-0.04656 0.556299,1.721877 c 0.04374,0.135348 0.172426,0.225311 0.314673,0.222359 l 1.178423,-0.02489 c 0.102353,-8.63e-4 0.199535,-0.05196 0.258483,-0.135658 0.05905,-0.08367 0.07354,-0.191403 0.04093,-0.288183 l -2.315899,-6.949306 c -0.04483,-0.13426 -0.170971,-0.224508 -0.312265,-0.221556 z m -0.948037,1.314888 0.02088,8.22e-4 0.928772,3.076902 -1.690572,0.03611 z" />
</svg>
