<?xml version="1.0" encoding="UTF-8" standalone="no"?>
<svg
   height="48"
   width="48"
   version="1.1"
   id="svg6"
   sodipodi:docname="linphone.svg"
   inkscape:version="1.4 (1:1.4+202410161351+e7c3feb100)"
   xmlns:inkscape="http://www.inkscape.org/namespaces/inkscape"
   xmlns:sodipodi="http://sodipodi.sourceforge.net/DTD/sodipodi-0.dtd"
   xmlns="http://www.w3.org/2000/svg"
   xmlns:svg="http://www.w3.org/2000/svg"
   xmlns:rdf="http://www.w3.org/1999/02/22-rdf-syntax-ns#"
   xmlns:cc="http://creativecommons.org/ns#"
   xmlns:dc="http://purl.org/dc/elements/1.1/">
  <metadata
     id="metadata12">
    <rdf:RDF>
      <cc:Work
         rdf:about="">
        <dc:format>image/svg+xml</dc:format>
        <dc:type
           rdf:resource="http://purl.org/dc/dcmitype/StillImage" />
      </cc:Work>
    </rdf:RDF>
  </metadata>
  <defs
     id="defs10">
    <linearGradient
       gradientUnits="userSpaceOnUse"
       gradientTransform="matrix(0.0920001,0,0,0.09064843,-21.193131,1.5846311)"
       y2="269.48999"
       y1="235.14999"
       x2="657.65002"
       x1="319.20999"
       id="a-12">
      <stop
         id="stop1076"
         offset="0"
         stop-color="#e54c18" />
      <stop
         id="stop1078"
         offset="1"
         stop-color="#fec350" />
    </linearGradient>
    <linearGradient
       id="linearGradient946"
       x1="31.833"
       x2="32.167"
       y1="51.558998"
       y2="11.098"
       gradientUnits="userSpaceOnUse"
       gradientTransform="matrix(0.83258662,0,0,0.83258662,-4.004011,0.8380211)">
      <stop
         stop-color="#f9f9f9"
         offset="0"
         id="stop5" />
      <stop
         stop-color="#f0fee6"
         offset="1"
         id="stop7-3" />
    </linearGradient>
    <linearGradient
       gradientUnits="userSpaceOnUse"
       y2="12.7"
       y1="4.2333002"
       x2="7.9373002"
       x1="7.9373002"
       id="linearGradient1166">
      <stop
         id="stop13"
         offset="0"
         stop-color="#ffffff" />
      <stop
         id="stop15"
         offset="1"
         stop-color="#b8ffe1"
         style="stop-color:#d6f2dc;stop-opacity:1" />
    </linearGradient>
    <filter
       id="c-5"
       width="1.1008318"
       height="1.3361104"
       x="-0.050415914"
       y="-0.16805519"
       color-interpolation-filters="sRGB">
      <feGaussianBlur
         stdDeviation=".548"
         id="feGaussianBlur2" />
    </filter>
  </defs>
  <sodipodi:namedview
     pagecolor="#ffffff"
     bordercolor="#666666"
     borderopacity="1"
     objecttolerance="10"
     gridtolerance="10"
     guidetolerance="10"
     inkscape:pageopacity="0"
     inkscape:pageshadow="2"
     inkscape:window-width="1920"
     inkscape:window-height="1054"
     id="namedview8"
     showgrid="true"
     inkscape:zoom="13.110938"
     inkscape:cx="16.360385"
     inkscape:cy="27.419853"
     inkscape:window-x="0"
     inkscape:window-y="0"
     inkscape:window-maximized="1"
     inkscape:current-layer="svg6"
     inkscape:document-rotation="0"
     inkscape:pagecheckerboard="0"
     inkscape:showpageshadow="2"
     inkscape:deskcolor="#d1d1d1">
    <inkscape:grid
       type="xygrid"
       id="grid837"
       originx="0"
       originy="0"
       spacingy="1"
       spacingx="1"
       units="px" />
  </sodipodi:namedview>
  <circle
     cx="23.940615"
     cy="31.534513"
     opacity=".99"
     r="13.232998"
     transform="matrix(1.75830584759 0 0 1.75830608345 -18.15909274367 -30.97874795549)"
     id="circle2"
     style="fill:#bf616a;fill-opacity:1" />
  <ellipse
     cx="23.935829"
     cy="24.468578"
     opacity="0.99"
     id="circle858"
     style="fill:#ffffff;fill-opacity:0.23596899;stroke-width:1.50099;opacity:1"
     rx="19.862556"
     ry="19.862558" />
  <path
     style="fill:#ffffff;stroke-width:0.903636"
     d="m 25.279405,11.460514 c -0.635038,0 -1.162006,0.507155 -1.168057,1.121729 -0.0038,0.617375 0.523384,1.136531 1.162928,1.139711 2.760069,0.02083 5.029465,0.892954 6.859334,2.613048 1.80836,1.704135 2.751033,4.06522 2.775071,7.146302 v 0.0027 c 0.0065,0.612909 0.533925,1.119112 1.170626,1.119112 6.9e-5,0 0.01201,-0.0025 0.01298,-0.0027 0.638133,-0.0058 1.168078,-0.520316 1.162912,-1.137146 v -0.0027 c -0.01428,-1.798016 -0.307246,-3.449694 -0.87834,-4.90259 -0.578327,-1.468258 -1.456663,-2.767193 -2.602478,-3.847827 -2.264517,-2.12893 -5.15616,-3.228723 -8.485162,-3.252213 h -0.01022 z M 13.4244,14.117288 c -0.445314,-0.07568 -0.927694,0.0071 -1.409368,0.238731 h -0.03852 l -0.05394,0.03073 c -0.892435,0.507428 -1.729201,1.187619 -2.5130182,2.040743 l -0.061608,0.06673 v 0.06161 c -0.5421832,0.67603 -0.9007484,1.356577 -0.9831605,2.038211 -0.026301,0.115509 -0.02562,0.219674 -0.02562,0.331117 0,0.310111 0.045594,0.62527 0.1411934,0.934353 l 0.02562,0.08726 0.053901,0.03073 c 0.3095645,1.062026 1.0120758,2.714786 2.5491633,5.513781 1.023805,1.855154 2.069875,3.404732 3.108879,4.710348 0.547295,0.686187 1.167283,1.400622 1.886795,2.120258 0.0086,0.0086 0.03891,0.03956 0.0719,0.0693 0.01119,0.01119 0.02732,0.03515 0.06673,0.07446 l 0.0719,0.07189 h 0.0052 c 0.02528,0.02528 0.04242,0.04371 0.04621,0.04877 l 0.01298,0.01541 0.01298,0.01298 c 0.719551,0.711629 1.429248,1.335289 2.123007,1.879008 1.303714,1.03893 2.853147,2.093148 4.708138,3.118851 2.80236,1.545851 4.470655,2.244578 5.527009,2.548891 l 0.03852,0.04621 0.0642,0.02322 c 0.299286,0.09977 0.610715,0.145834 0.919033,0.141194 0.125066,0.0068 0.235794,-0.0018 0.341432,-0.02562 0.723539,-0.0846 1.439962,-0.427145 2.148668,-1.02162 l 0.0078,-0.01022 0.0078,-0.0052 c 0.01087,-0.01087 0.0044,-0.0055 0.01022,-0.01298 0.0065,-0.0055 0.0089,-0.01233 0.01574,-0.0181 0.838901,-0.765572 1.515998,-1.598205 2.025414,-2.489803 l 0.03347,-0.05649 v -0.05393 c 0.467904,-0.974255 0.282551,-1.968822 -0.477483,-2.602928 -0.01844,-0.01606 -0.383809,-0.321212 -0.836893,-0.690487 -0.463901,-0.377462 -1.013419,-0.821246 -1.384435,-1.093464 -0.701983,-0.519249 -1.786961,-1.190907 -2.405483,-1.535011 h -0.0025 C 28.068365,30.091033 26.827093,30.4776 26.280935,31.184896 l -0.957524,1.198745 c -0.386178,0.486537 -1.157831,0.440132 -1.178325,0.438941 -6.494807,-1.670781 -8.240998,-8.20092 -8.253467,-8.247365 -0.0011,-0.02049 -0.04785,-0.793379 0.438985,-1.185916 l 1.193725,-0.95488 c 0.709048,-0.542996 1.107678,-1.783976 0.438989,-2.975007 -0.348842,-0.615762 -1.02346,-1.708834 -1.535154,-2.405232 h -0.0025 c -0.276459,-0.372441 -0.719252,-0.925048 -1.09697,-1.388929 -0.187945,-0.231832 -0.35965,-0.443998 -0.484351,-0.595433 -0.06325,-0.07573 -0.11387,-0.13678 -0.150004,-0.179612 -0.0181,-0.02152 -0.03313,-0.03647 -0.04365,-0.04877 -0.0052,-0.0062 -0.0083,-0.01022 -0.01298,-0.01541 -0.330737,-0.392866 -0.751825,-0.632122 -1.216298,-0.711092 z m 11.924404,2.602928 c -0.626346,-0.04416 -1.189131,0.42512 -1.234801,1.029335 -0.04569,0.604888 0.442292,1.144376 1.067936,1.188468 1.547173,0.109327 2.591274,0.564152 3.375812,1.393824 v 0.0027 c 0.800823,0.845067 1.165204,1.810159 1.13468,3.12897 v 0.0052 c -0.01363,0.606891 0.495537,1.121224 1.124414,1.134524 h 0.02834 c 0.619697,0 1.13629,-0.489142 1.15008,-1.088372 0.04238,-1.812868 -0.548128,-3.430393 -1.737966,-4.684509 -1.198227,-1.260245 -2.891644,-1.966276 -4.91037,-2.109761 z"
     id="path4" />
</svg>
