<?xml version="1.0" encoding="UTF-8" standalone="no"?>
<svg
   height="48"
   width="48"
   version="1.1"
   id="svg10"
   sodipodi:docname="magictree.svg"
   inkscape:version="1.1.2 (0a00cf5339, 2022-02-04)"
   xmlns:inkscape="http://www.inkscape.org/namespaces/inkscape"
   xmlns:sodipodi="http://sodipodi.sourceforge.net/DTD/sodipodi-0.dtd"
   xmlns="http://www.w3.org/2000/svg"
   xmlns:svg="http://www.w3.org/2000/svg">
  <defs
     id="defs14" />
  <sodipodi:namedview
     id="namedview12"
     pagecolor="#ffffff"
     bordercolor="#666666"
     borderopacity="1.0"
     inkscape:pageshadow="2"
     inkscape:pageopacity="0.0"
     inkscape:pagecheckerboard="0"
     showgrid="false"
     inkscape:zoom="8.2500001"
     inkscape:cx="8.4848484"
     inkscape:cy="29.212121"
     inkscape:window-width="1920"
     inkscape:window-height="1012"
     inkscape:window-x="0"
     inkscape:window-y="0"
     inkscape:window-maximized="1"
     inkscape:current-layer="svg10" />
  <g
     fill="#626c97"
     opacity="0.99"
     transform="matrix(1.1503549,0,0,1.1503549,-4.486125,-7.525565)"
     id="g6">
    <path
       d="M 44.322082,27.405077 A 19.729762,19.729765 0 0 1 24.59232,47.134842 19.729762,19.729765 0 0 1 4.8625579,27.405077 19.729762,19.729765 0 0 1 24.59232,7.6753138 19.729762,19.729765 0 0 1 44.322082,27.405077 Z"
       id="path2" />
    <path
       id="path4"
       style="fill:#8690ba;fill-opacity:1;stroke-width:1.15035"
       d="M 23.804688,1.3046875 A 22.696228,22.696232 0 0 0 1.1074219,24 22.696228,22.696232 0 0 0 23.804688,46.695312 22.696228,22.696232 0 0 0 46.5,24 22.696228,22.696232 0 0 0 23.804688,1.3046875 Z"
       transform="matrix(0.86929694,0,0,0.86929694,3.8997748,6.5419507)" />
  </g>
  <path
     id="path895"
     style="fill:#ffffff;fill-opacity:1;stroke-width:1.65298;stroke-linecap:round;stroke-linejoin:round"
     inkscape:transform-center-x="1.8179722e-06"
     inkscape:transform-center-y="-4.3683848"
     d="m 23.799954,8.5850419 -0.042,0.080799 c -0.391962,0.035083 -0.74199,0.2771689 -0.906981,0.6398409 a 0.5515681,0.5515681 0 0 0 0,10e-4 l -1.152574,2.5442872 -2.778033,0.27791 c -0.453825,0.04515 -0.812034,0.369877 -0.938216,0.749708 -0.126316,0.380251 -0.03374,0.854567 0.303761,1.162273 l 1.8452,1.681468 -4.0631,7.905376 c 2.309623,2.066957 4.937403,3.083818 7.583302,3.086103 2.683539,0.0023 5.405338,-1.038978 7.841822,-3.176585 l -3.990933,-7.762084 1.874283,-1.670695 c 0.340392,-0.303642 0.438248,-0.775517 0.316689,-1.156886 -0.121573,-0.38137 -0.475206,-0.711988 -0.928525,-0.762637 L 25.988773,11.876846 24.866357,9.3196358 C 24.691866,8.9226988 24.29707,8.6621326 23.863506,8.6593671 h -0.0011 c -0.0055,-3.59e-5 -0.01069,0.00104 -0.01625,0.00104 l -0.03877,-0.075403 z m 0.05601,1.1773519 1.250599,2.8491252 a 0.5515681,0.5515681 0 0 0 0.0011,0.001 l 0.127116,0.288683 0.313457,0.03555 0.52566,0.05817 2.567982,0.286528 -2.322411,2.069253 a 0.5515681,0.5515681 0 0 0 -0.0034,0.0043 l -0.233745,0.208972 0.691546,3.357549 h -0.0011 l -2.685383,-1.568365 -0.274679,-0.160501 -0.275757,0.157271 -2.703705,1.538205 0.661383,-3.039784 0.06786,-0.310226 -0.230516,-0.210049 -0.0043,-0.0043 -0.675387,-0.615067 -1.623301,-1.481113 a 0.5515681,0.5515681 0 0 0 0.0011,-0.0021 l 2.513046,-0.250982 0.581674,-0.05816 0.316691,-0.03126 z M 20.642752,21.093183 a 2.0891367,2.0891367 0 0 1 2.089718,2.089717 2.0891367,2.0891367 0 0 1 -2.089718,2.088641 2.0891367,2.0891367 0 0 1 -2.08864,-2.088641 2.0891367,2.0891367 0 0 1 2.08864,-2.089717 z m 5.199519,0.804651 a 1.1564157,1.1564157 0 0 1 1.156881,1.156883 1.1564157,1.1564157 0 0 1 -1.156882,1.155808 1.1564157,1.1564157 0 0 1 -1.155809,-1.155808 1.1564157,1.1564157 0 0 1 1.15581,-1.156883 z m 6.166817,2.644461 c -2.563198,2.170707 -5.466267,3.277097 -8.358868,3.274608 -2.845214,-0.0025 -5.658768,-1.081139 -8.100346,-3.180893 l -2.002466,3.895058 0.119561,-0.131423 c 5.912469,5.374574 14.197052,5.525526 20.519086,0.37701 z m -2.092948,2.640152 a 1.3244606,1.3244606 0 0 1 1.323845,1.324923 1.3244606,1.3244606 0 0 1 -1.323845,1.323848 1.3244606,1.3244606 0 0 1 -1.324925,-1.323848 1.3244606,1.3244606 0 0 1 1.324925,-1.324923 z m -16.803913,2.195281 -1.23121,2.394556 c -0.997472,1.751685 -0.559222,3.775843 0.841271,4.591991 3.525537,2.04463 7.235564,3.058429 10.965631,3.050558 h 0.191729 c 3.743023,0.01502 7.467834,-0.998904 11.005485,-3.050558 1.400492,-0.816148 1.838744,-2.840306 0.841273,-4.591991 l -1.025473,-1.992771 c -6.615639,5.248444 -15.368225,5.09939 -21.588715,-0.401785 z m 10.366719,0.07648 a 0.99051307,0.99051307 0 0 1 0.989924,0.989923 0.99051307,0.99051307 0 0 1 -0.989924,0.990999 0.99051307,0.99051307 0 0 1 -0.990999,-0.990999 0.99051307,0.99051307 0 0 1 0.990999,-0.989923 z m -8.168208,3.697938 a 1.3244606,1.3244606 0 0 1 1.324925,1.324922 1.3244606,1.3244606 0 0 1 -1.324925,1.323845 1.3244606,1.3244606 0 0 1 -1.323848,-1.323845 1.3244606,1.3244606 0 0 1 1.323848,-1.324922 z M 26.476722,33.9848 a 1.806983,1.806983 0 0 1 1.807496,1.807497 1.806983,1.806983 0 0 1 -1.807496,1.806419 1.806983,1.806983 0 0 1 -1.806421,-1.806419 1.806983,1.806983 0 0 1 1.806421,-1.807497 z" />
</svg>
