<?xml version="1.0" encoding="UTF-8" standalone="no"?>
<svg
   height="48"
   width="48"
   version="1.1"
   id="svg10"
   sodipodi:docname="muffon.svg"
   inkscape:version="1.1.2 (0a00cf5339, 2022-02-04)"
   xmlns:inkscape="http://www.inkscape.org/namespaces/inkscape"
   xmlns:sodipodi="http://sodipodi.sourceforge.net/DTD/sodipodi-0.dtd"
   xmlns="http://www.w3.org/2000/svg"
   xmlns:svg="http://www.w3.org/2000/svg">
  <defs
     id="defs14" />
  <sodipodi:namedview
     id="namedview12"
     pagecolor="#ffffff"
     bordercolor="#666666"
     borderopacity="1.0"
     inkscape:pageshadow="2"
     inkscape:pageopacity="0.0"
     inkscape:pagecheckerboard="0"
     showgrid="false"
     inkscape:zoom="11.667262"
     inkscape:cx="21.256058"
     inkscape:cy="20.741799"
     inkscape:window-width="1920"
     inkscape:window-height="1028"
     inkscape:window-x="0"
     inkscape:window-y="0"
     inkscape:window-maximized="1"
     inkscape:current-layer="svg10" />
  <g
     fill="#626c97"
     opacity="0.99"
     transform="matrix(1.1503549,0,0,1.1503549,-4.486125,-7.525565)"
     id="g6">
    <path
       d="M 44.322082,27.405077 A 19.729762,19.729765 0 0 1 24.59232,47.134842 19.729762,19.729765 0 0 1 4.8625579,27.405077 19.729762,19.729765 0 0 1 24.59232,7.6753138 19.729762,19.729765 0 0 1 44.322082,27.405077 Z"
       id="path2" />
    <path
       id="path4"
       style="fill:#8690ba;fill-opacity:1;stroke-width:1.15035"
       d="M 23.804688,1.3046875 A 22.696228,22.696232 0 0 0 1.1074219,24 22.696228,22.696232 0 0 0 23.804688,46.695312 22.696228,22.696232 0 0 0 46.5,24 22.696228,22.696232 0 0 0 23.804688,1.3046875 Z"
       transform="matrix(0.86929694,0,0,0.86929694,3.8997748,6.5419507)" />
  </g>
  <path
     id="rect849-3"
     style="fill:#ffffff;fill-opacity:1;stroke-width:0.275544"
     d="m 16.984603,13.575877 c -0.638223,0.07022 -1.263238,0.275129 -1.835164,0.609375 v 19.629497 c 0.571927,0.334247 1.196939,0.539149 1.835164,0.609376 z m 12.617454,0 c -0.638221,0.07022 -1.263237,0.275129 -1.835163,0.609375 v 8.534076 C 27.575159,22.04891 27.228898,21.413107 26.729688,20.864461 v -5.866472 l -1.835163,1.835163 v 2.181369 L 23.85732,17.977315 v -0.10696 l -0.05347,0.05347 -0.03801,-0.038 v 0.07599 l -1.036501,1.036502 v -2.148999 l -1.835161,-1.835165 v 5.831993 c -0.49423,0.537669 -0.840347,1.160755 -1.037206,1.818276 v -8.469318 c -0.57152,-0.337091 -1.19644,-0.544625 -1.835164,-0.617116 V 34.42131 c 0.638729,-0.0725 1.26364,-0.279321 1.835164,-0.616411 v -8.469338 c 0.196839,0.657455 0.543055,1.279941 1.037206,1.817573 v 5.832696 l 1.835163,-1.835164 v -2.149703 l 1.036502,1.036502 v 0.076 l 0.038,-0.038 0.05347,0.05347 v -0.10696 l 1.037204,-1.036502 v 2.180664 l 1.835164,1.835165 v -5.86577 c 0.499288,-0.548682 0.845451,-1.185087 1.037205,-1.855569 v 8.534777 c 0.571927,0.334247 1.196942,0.539149 1.835164,0.609376 z m 1.037206,0.0021 V 34.42131 c 0.638728,-0.0725 1.263639,-0.279321 1.835164,-0.616411 V 14.195104 c -0.571523,-0.337091 -1.196438,-0.544625 -1.835164,-0.617117 z m -16.527029,1.420002 -1.835164,1.835163 v 14.332994 l 1.835164,1.835164 z m 19.398694,0.01618 v 17.971664 l 1.835867,-1.835164 V 16.849337 Z m -22.270359,2.856193 -1.8351636,1.835163 v 8.588256 l 1.8351636,1.835165 z m 25.14273,0.01548 v 12.227624 l 1.835866,-1.835163 V 19.721699 Z M 8.3682004,20.747644 c -1.766342,1.816259 -1.766342,4.688436 0,6.504698 z m 30.8874646,0.01689 v 6.470219 c 1.744417,-1.811484 1.744417,-4.658732 0,-6.470219 z" />
</svg>
