<?xml version="1.0" encoding="UTF-8" standalone="no"?>
<svg
   height="48"
   width="48"
   version="1.1"
   id="svg6"
   sodipodi:docname="kde.org.iconexplorer.svg"
   inkscape:version="1.4 (1:1.4+202410161351+e7c3feb100)"
   xml:space="preserve"
   xmlns:inkscape="http://www.inkscape.org/namespaces/inkscape"
   xmlns:sodipodi="http://sodipodi.sourceforge.net/DTD/sodipodi-0.dtd"
   xmlns="http://www.w3.org/2000/svg"
   xmlns:svg="http://www.w3.org/2000/svg"><defs
     id="defs10"><clipPath
       clipPathUnits="userSpaceOnUse"
       id="clipPath1"><rect
         style="fill:#5e5656;stroke:#5e5656;stroke-width:7.55906;stroke-linecap:round;stroke-linejoin:round"
         id="rect2"
         width="822.64386"
         height="540.46655"
         x="225.44324"
         y="252.31726"
         rx="3.4092653"
         ry="3.4092653" /></clipPath></defs><sodipodi:namedview
     id="namedview8"
     pagecolor="#ffffff"
     bordercolor="#666666"
     borderopacity="1.0"
     inkscape:pageshadow="2"
     inkscape:pageopacity="0.0"
     inkscape:pagecheckerboard="0"
     showgrid="false"
     inkscape:zoom="4.09375"
     inkscape:cx="-14.045802"
     inkscape:cy="64.610687"
     inkscape:window-width="1920"
     inkscape:window-height="1056"
     inkscape:window-x="0"
     inkscape:window-y="0"
     inkscape:window-maximized="1"
     inkscape:current-layer="svg6"
     inkscape:showpageshadow="2"
     inkscape:deskcolor="#d1d1d1" /><path
     d="m44.322082 27.405077a19.729762 19.729765 0 0 1 -19.729762 19.729765 19.729762 19.729765 0 0 1 -19.7297621-19.729765 19.729762 19.729765 0 0 1 19.7297621-19.7297632 19.729762 19.729765 0 0 1 19.729762 19.7297632z"
     fill="#d9935b"
     opacity=".99"
     transform="matrix(1.1503549 0 0 1.1503549 -4.486125 -7.525565)"
     id="path2"
     style="fill:#d08770;fill-opacity:1" /><path
     style="fill:#ffffff;stroke-width:0.0602996;fill-opacity:1"
     d="m 15.027365,31.838983 c -1.729018,-0.52788 -2.955897,-2.02497 -4.765986,-2.36835 -2.4792579,-0.77288 -5.2712729,-1.24582 -7.7324789,-0.17664 1.91719,-1.32711 4.352068,-1.08275 6.537078,-0.80339 0.861525,0.12802 1.9064109,0.15436 0.827904,-0.75424 -1.716588,-2.01992 -1.944739,-5.14292 -0.497008,-7.36195 0.0045,-0.91386 3.0519629,-1.22202 1.4157089,-0.79748 -1.2374659,0.0281 -1.8995449,3.24718 -1.6343869,3.00433 0.288998,-1.3624 1.5314869,-2.97542 3.0818189,-2.24581 0.978459,0.33507 2.093123,1.12491 1.297966,2.24982 -1.217692,1.17943 -2.405267,2.75467 -1.146973,4.42543 0.298676,0.64139 1.823114,2.90412 1.949498,1.80202 -1.642153,-0.17864 1.25178,-0.59858 1.869604,-0.75424 1.877031,-0.52927 3.993595,-1.5222 4.670697,-3.48333 -0.235395,-3.15422 -2.570561,-5.89965 -2.127673,-9.16275 0.07077,-3.04774 3.414669,-5.5699397 6.338749,-4.52277 2.516468,0.71887 3.869241,3.47473 3.559958,5.96026 -0.222311,2.84784 -2.187323,5.2837 -2.179756,8.16592 1.313512,2.35109 4.166936,3.09358 6.648,3.46787 -0.460508,0.37274 -0.480122,1.1561 -1.22948,0.7878 -0.415406,0.90537 -1.153463,-0.18945 -1.222539,0.82305 -0.684802,-0.006 -0.579652,-1.00384 -1.590335,-0.92151 -0.940443,-0.78001 -1.157069,-0.0765 -1.488652,-1.15914 -0.370444,-0.43977 -1.191005,-1.52903 -0.573261,-0.28741 0.624251,1.63601 2.316205,3.2771 4.200122,2.58645 1.453315,-0.57148 2.680342,-1.71993 3.604305,-2.9591 0.794176,-1.21858 1.166237,-3.11256 -0.363786,-3.92728 -1.771965,-1.21756 -0.368335,-3.54948 1.519671,-2.92087 1.11036,0.38395 1.530705,1.56624 1.860165,2.58491 -0.04658,-1.37324 -0.675814,-3.29861 -2.308402,-3.316 -0.912459,-0.24767 1.832209,-0.74775 2.140897,0.2115 1.501772,1.75044 1.597033,4.4657 0.638256,6.50025 -0.289169,0.8415 -2.316994,2.46335 -0.340908,2.01984 2.212981,-0.26968 4.641413,-0.55721 6.623343,0.71788 -0.15,-0.12189 -0.745313,-0.20084 -0.985536,0.14289 -0.06109,-1.12883 -2.843411,-0.65051 -3.964239,-0.51428 0.56614,0.92136 -0.757408,0.74664 -0.586034,0.0632 -1.460101,0.39515 -3.107633,0.62535 -4.27505,1.65905 0.451548,0.96455 -0.872088,-0.10301 -1.35945,0.79814 -1.77102,1.07352 -3.995327,0.77336 -5.714906,-0.24999 -1.527127,-0.76577 -2.811717,-1.90759 -4.009212,-3.10749 -1.85044,1.8579 -4.062464,3.60841 -6.712672,4.02247 -0.659642,-0.0163 -1.351301,0.0705 -1.975017,-0.19909 z m 2.438049,-1.45491 c 1.516017,-0.40895 2.429988,-1.89924 2.881045,-3.30566 -0.677581,0.66464 -1.22291,1.7506 -1.84521,1.92472 0.340175,0.68878 -1.671123,-0.18859 -1.621011,1.08605 -0.705936,0.0687 -0.618869,-0.99805 -1.410297,-0.29404 -0.309255,-1.23255 -1.72449,-0.32986 -0.363607,0.17607 0.709151,0.38745 1.556371,0.63105 2.35908,0.41286 z m -0.196916,-0.3691 c -0.212833,-1.36618 1.333844,0.22567 0,0 z m 4.619529,-8.37631 c 1.217895,-0.0893 0.736971,-2.83986 0.241634,-1.19221 -1.407372,0.59295 -0.700351,-1.11132 -0.743968,-1.12076 -1.772623,0.14984 -1.169444,2.90867 0.502334,2.31297 z m 4.10042,0.0313 c 1.709291,-0.42189 0.424485,-2.9093 -0.61689,-2.28716 1.0866,1.04578 -0.971905,1.36272 -0.907911,1.11091 -0.03151,0.76917 0.789604,1.42443 1.524801,1.17625 z m -13.641652,9.38351 c -0.228148,-0.95422 1.016492,0.11281 0,0 z m -1.146043,-0.30192 c -0.142636,-1.13402 1.022463,0.37998 0,0 z m 24.491249,0.0152 c -0.245736,-1.03627 1.035516,0.17999 0,0 z m -25.9666809,-0.5048 c -0.276879,-1.21614 1.0553979,0.23189 0,0 z m 27.0852389,0.0296 c -0.48605,-1.20085 1.245397,0.0379 0,0 z m -28.2201639,-0.2412 c -0.48846,-1.38537 1.4600969,0.0425 0,0 z m 29.5410229,-0.0451 c -0.254188,-1.4993 1.418204,0.34203 0,0 z m -9.026379,-0.0749 c 0.0062,-1.27023 1.239593,0.52699 0,0 z m -21.7022379,-0.2163 c -0.125627,-1.61494 1.387087,0.55398 0,0 z m -4.031324,-0.093 c -0.147962,-0.82514 0.773161,0.22408 0,0 z m 2.982109,-0.15851 c -0.308154,-1.35252 1.237076,0.23591 0,0 z m 34.0089129,0 c -0.304688,-1.60602 1.425312,0.33153 0,0 z m -35.3950629,-0.0745 c -0.04467,-1.32064 1.087104,0.46327 0,0 z m 36.5377189,0.0109 c -0.232886,-1.23657 1.158984,0.28768 0,0 z m -13.109391,-0.019 c -0.187091,-0.88666 0.804943,0.18752 0,0 z m -24.2122559,-0.0281 c -0.119024,-0.68592 0.787012,0.12159 0,0 z m 38.5732829,-0.0502 c 0.02521,-0.84837 0.742557,0.43903 0,0 z"
     id="path2-3" /></svg>
