<?xml version="1.0" encoding="UTF-8" standalone="no"?>
<svg
   height="48"
   width="48"
   version="1.1"
   id="svg6"
   sodipodi:docname="osu.svg"
   inkscape:version="1.1.2 (0a00cf5339, 2022-02-04)"
   xmlns:inkscape="http://www.inkscape.org/namespaces/inkscape"
   xmlns:sodipodi="http://sodipodi.sourceforge.net/DTD/sodipodi-0.dtd"
   xmlns="http://www.w3.org/2000/svg"
   xmlns:svg="http://www.w3.org/2000/svg"
   xmlns:rdf="http://www.w3.org/1999/02/22-rdf-syntax-ns#"
   xmlns:cc="http://creativecommons.org/ns#"
   xmlns:dc="http://purl.org/dc/elements/1.1/">
  <metadata
     id="metadata12">
    <rdf:RDF>
      <cc:Work
         rdf:about="">
        <dc:format>image/svg+xml</dc:format>
        <dc:type
           rdf:resource="http://purl.org/dc/dcmitype/StillImage" />
      </cc:Work>
    </rdf:RDF>
  </metadata>
  <defs
     id="defs10">
    <linearGradient
       gradientUnits="userSpaceOnUse"
       gradientTransform="matrix(0.0920001,0,0,0.09064843,-21.193131,1.5846311)"
       y2="269.48999"
       y1="235.14999"
       x2="657.65002"
       x1="319.20999"
       id="a-12">
      <stop
         id="stop1076"
         offset="0"
         stop-color="#e54c18" />
      <stop
         id="stop1078"
         offset="1"
         stop-color="#fec350" />
    </linearGradient>
    <linearGradient
       id="linearGradient946"
       x1="31.833"
       x2="32.167"
       y1="51.558998"
       y2="11.098"
       gradientUnits="userSpaceOnUse"
       gradientTransform="matrix(0.83258662,0,0,0.83258662,-4.004011,0.8380211)">
      <stop
         stop-color="#f9f9f9"
         offset="0"
         id="stop5" />
      <stop
         stop-color="#f0fee6"
         offset="1"
         id="stop7-3" />
    </linearGradient>
    <linearGradient
       gradientUnits="userSpaceOnUse"
       y2="12.7"
       y1="4.2333002"
       x2="7.9373002"
       x1="7.9373002"
       id="linearGradient1166">
      <stop
         id="stop13"
         offset="0"
         stop-color="#ffffff" />
      <stop
         id="stop15"
         offset="1"
         stop-color="#b8ffe1"
         style="stop-color:#d6f2dc;stop-opacity:1" />
    </linearGradient>
  </defs>
  <sodipodi:namedview
     pagecolor="#ffffff"
     bordercolor="#666666"
     borderopacity="1"
     objecttolerance="10"
     gridtolerance="10"
     guidetolerance="10"
     inkscape:pageopacity="0"
     inkscape:pageshadow="2"
     inkscape:window-width="1920"
     inkscape:window-height="1022"
     id="namedview8"
     showgrid="true"
     inkscape:zoom="13.110938"
     inkscape:cx="11.212012"
     inkscape:cy="32.110593"
     inkscape:window-x="0"
     inkscape:window-y="0"
     inkscape:window-maximized="1"
     inkscape:current-layer="svg6"
     inkscape:document-rotation="0"
     inkscape:pagecheckerboard="0">
    <inkscape:grid
       type="xygrid"
       id="grid837" />
  </sodipodi:namedview>
  <circle
     cx="23.940615"
     cy="31.534513"
     opacity=".99"
     r="13.232998"
     transform="matrix(1.75830584759 0 0 1.75830608345 -18.15909274367 -30.97874795549)"
     id="circle2"
     style="fill:#b48ead;fill-opacity:1" />
  <ellipse
     cx="23.935829"
     cy="24.468578"
     opacity="0.99"
     id="circle858"
     style="fill:#ffffff;fill-opacity:0.26542;stroke-width:1.50099"
     rx="19.862556"
     ry="19.862558" />
  <path
     d="M 35.428527,15.714419 V 26.785736 H 37.64279 V 15.714419 Z m -24.356901,4.428527 c -1.2267007,0 -2.2142635,0.987564 -2.2142635,2.214263 V 29 c 0,1.226704 0.9875628,2.214263 2.2142635,2.214263 h 2.214263 c 1.226705,0 2.214264,-0.987559 2.214264,-2.214263 v -6.642791 c 0,-1.226699 -0.987559,-2.214263 -2.214264,-2.214263 z m 8.857054,0 c 0,0 -2.214262,0 -2.214262,2.214263 v 2.214264 c 0,0 0,2.214263 2.214262,2.214263 h 2.214263 V 29 h -4.428525 c 0,0 0,2.214263 2.214262,2.214263 h 2.214263 c 0,0 2.214266,0 2.214266,-2.214263 v -2.214264 c 0,0 0,-2.214263 -2.214266,-2.214263 H 19.92868 v -2.214264 h 4.428529 c 0,0 0,-2.214263 -2.214266,-2.214263 z m 6.642791,0 V 29 c 0,2.214263 2.214265,2.214263 2.214265,2.214263 H 31 C 33.214263,31.214263 33.214263,29 33.214263,29 V 20.142946 H 31 V 29 h -2.214264 v -8.857054 z m -14.392713,2.214263 c 0.613352,0 1.107131,0.987565 1.107131,2.214264 v 2.214263 C 13.285889,28.01244 12.79211,29 12.178758,29 11.56541,29 11.071626,28.01244 11.071626,26.785736 v -2.214263 c 0,-1.226699 0.493784,-2.214264 1.107132,-2.214264 z M 35.428527,29 v 2.214263 H 37.64279 V 29 Z"
     style="fill:#ffffff;stroke-width:0.738088"
     id="path10" />
</svg>
