<?xml version="1.0" encoding="UTF-8" standalone="no"?>
<svg
   version="1.1"
   preserveAspectRatio="xMidYMid meet"
   viewBox="0 0 640 640"
   width="64"
   height="64"
   id="svg67"
   sodipodi:docname="pritunl_client_electron.svg"
   inkscape:version="1.1.2 (0a00cf5339, 2022-02-04)"
   xmlns:inkscape="http://www.inkscape.org/namespaces/inkscape"
   xmlns:sodipodi="http://sodipodi.sourceforge.net/DTD/sodipodi-0.dtd"
   xmlns="http://www.w3.org/2000/svg"
   xmlns:svg="http://www.w3.org/2000/svg">
  <sodipodi:namedview
     id="namedview69"
     pagecolor="#ffffff"
     bordercolor="#666666"
     borderopacity="1.0"
     inkscape:pageshadow="2"
     inkscape:pageopacity="0.0"
     inkscape:pagecheckerboard="0"
     showgrid="false"
     inkscape:zoom="4.9609375"
     inkscape:cx="-47.168504"
     inkscape:cy="16.125984"
     inkscape:window-width="1920"
     inkscape:window-height="998"
     inkscape:window-x="0"
     inkscape:window-y="0"
     inkscape:window-maximized="1"
     inkscape:current-layer="g63" />
  <defs
     id="defs9">
    <path
       d="M600.43 320C600.43 478.19 474.77 606.61 320 606.61C165.23 606.61 39.57 478.19 39.57 320C39.57 161.81 165.23 33.39 320 33.39C474.77 33.39 600.43 161.81 600.43 320Z"
       id="c5YPSt4xXX" />
    <path
       d="M248.23 178.71C248.23 178.71 211.76 178.71 194.72 206.79C178.9 232.88 161.34 243.27 163.1 268.94C164.85 294.6 200.73 299.27 211.26 311.71C211.21 320.78 210.79 393.35 210.73 402.42C210.46 449.37 253.33 487.55 306.32 487.55C359.11 487.55 401.91 449.63 401.91 402.85C401.91 400.38 401.91 380.54 401.91 378.06C401.91 361.95 416.65 348.89 434.83 348.89C454.99 348.44 503.39 350.23 510.44 304.43C515.05 274.57 496.4 258.3 482.86 250.59C479.01 248.4 474.3 251.98 476.2 255.67C485.04 272.88 496.02 304.43 457.52 304.43C454.03 304.43 426.13 304.43 422.65 304.43C378.83 304.43 343.22 335.76 342.91 374.59C342.89 377.62 342.69 401.84 342.67 404.87C342.67 418.83 329.89 430.15 314.14 430.15C298.43 430.15 285.67 418.9 285.6 404.98C285.56 395.66 285.24 321.04 285.2 311.72C295.73 299.27 331.61 294.6 333.36 268.94C335.12 243.27 317.57 232.88 301.74 206.8C284.7 178.71 248.23 178.71 248.23 178.71"
       id="b4uSIkvWzl" />
    <path
       d="M232.21 262.27C232.21 265.16 232.21 288.26 232.21 291.15C232.21 293.26 234.99 294.42 236.83 293.07C237.5 292.59 240.82 290.16 246.81 285.78C252.79 290.16 256.12 292.59 256.78 293.07C258.62 294.42 261.4 293.26 261.4 291.14C261.4 288.26 261.4 265.16 261.4 262.27C258.03 259.77 253.73 257.79 246.8 257.79C239.88 257.79 235.58 259.77 232.21 262.27Z"
       id="cRnlAcH1o" />
    <path
       d="M232.21 258.9C232.21 260.58 232.21 274.04 232.21 275.72C235.58 273.22 239.88 271.24 246.8 271.24C253.72 271.24 258.03 273.22 261.4 275.72C261.4 274.04 261.4 260.58 261.4 258.9C258.03 256.39 253.73 254.41 246.8 254.41C239.88 254.41 235.58 256.39 232.21 258.9Z"
       id="e4yhiHsrqJ" />
    <path
       d="M202.82 236.44C202.82 243.01 207.49 248.15 213.46 248.15C219.43 248.15 224.11 243 224.11 236.44C224.11 229.88 219.43 224.74 213.46 224.74C207.49 224.74 202.82 229.88 202.82 236.44Z"
       id="c4LgQRNS9k" />
    <path
       d="M272.35 236.44C272.35 243.01 277.03 248.15 282.99 248.15C288.96 248.15 293.64 243 293.64 236.44C293.64 229.88 288.96 224.74 282.99 224.74C277.03 224.74 272.35 229.88 272.35 236.44Z"
       id="f8ACvIFWa" />
    <path
       d="M261.86 264.25C257.86 260.48 254.7 257.5 246.8 257.5C238.9 257.5 235.74 260.48 231.75 264.25C227.95 267.83 223.22 272.29 214.45 272.29C199.84 272.29 192.63 262.79 192.33 262.39C190.73 260.23 191.41 257.34 193.84 255.92C196.28 254.5 199.55 255.1 201.15 257.26C201.3 257.45 205.66 262.94 214.45 262.94C218.48 262.94 220.41 261.28 224.05 257.85C228.39 253.75 234.34 248.15 246.8 248.15C259.27 248.15 265.21 253.75 269.55 257.85C273.19 261.28 275.12 262.94 279.15 262.94C287.94 262.94 292.3 257.45 292.49 257.22C294.09 255.06 297.34 254.48 299.78 255.9C302.21 257.31 302.87 260.23 301.27 262.39C300.97 262.79 293.77 272.29 279.15 272.29C270.38 272.29 265.66 267.83 261.86 264.25Z"
       id="crSPfVlGA" />
  </defs>
  <g
     id="g65">
    <g
       id="g63">
      <g
         id="g13">
        <path
           d="M 600.43,320 C 600.43,478.19 474.77,606.61 320,606.61 165.23,606.61 39.57,478.19 39.57,320 39.57,161.81 165.23,33.39 320,33.39 474.77,33.39 600.43,161.81 600.43,320 Z"
           id="use11"
           style="fill:#4c566a;fill-opacity:1" />
      </g>
      <path
         style="fill:#ffffff;fill-opacity:0.709511;stroke-width:8.06146"
         d="m 234.28029,187.98056 c -0.28032,3.08646 -0.4253,7.89089 -0.42496,14.34373 v 279.5323 c 0,48.73041 72.55314,47.09009 72.55314,0 v -117.5914 c 10.38375,12.9061 26.53664,19.3664 49.54963,19.3664 23.01275,0 44.61571,-10.7996 64.82234,-32.40329 20.48687,-21.60364 30.73407,-48.31548 30.73431,-76.93341 -2.4e-4,-28.61775 -10.24744,-53.78343 -30.73431,-75.38728 -20.48734,-21.60346 -42.21904,-32.38729 -65.23179,-32.38754 -22.73236,2.5e-4 -38.47584,7.28057 -49.14024,21.86987 0,-36.75546 -72.12812,-35.31638 -72.12812,-0.40938 z m 107.80629,50.66755 c 11.02987,1.3e-4 19.89999,3.81064 26.68786,11.44664 6.78753,7.35347 10.18686,15.73314 10.18702,25.0661 -1.6e-4,9.33317 -3.66835,17.66564 -11.02153,25.01885 -7.07065,7.35343 -15.87721,11.02162 -26.34147,11.02155 -10.18165,7e-5 -18.64062,-3.66809 -25.42823,-11.02155 -6.50494,-7.63606 -9.76201,-15.96848 -9.76191,-25.01885 -1e-4,-9.05013 3.25697,-17.42982 9.76191,-25.0661 6.50476,-7.636 15.16903,-11.44651 25.91635,-11.44664 z"
         id="path8"
         sodipodi:nodetypes="cccccscccccccccccccsc" />
    </g>
  </g>
</svg>
