<?xml version="1.0" encoding="UTF-8" standalone="no"?>
<svg
   height="48"
   width="48"
   version="1.1"
   id="svg6"
   sodipodi:docname="quaternion.svg"
   inkscape:version="1.1.2 (0a00cf5339, 2022-02-04)"
   xmlns:inkscape="http://www.inkscape.org/namespaces/inkscape"
   xmlns:sodipodi="http://sodipodi.sourceforge.net/DTD/sodipodi-0.dtd"
   xmlns="http://www.w3.org/2000/svg"
   xmlns:svg="http://www.w3.org/2000/svg">
  <defs
     id="defs10" />
  <sodipodi:namedview
     id="namedview8"
     pagecolor="#ffffff"
     bordercolor="#666666"
     borderopacity="1.0"
     inkscape:pageshadow="2"
     inkscape:pageopacity="0.0"
     inkscape:pagecheckerboard="0"
     showgrid="false"
     inkscape:zoom="9.2807765"
     inkscape:cx="14.438447"
     inkscape:cy="28.230396"
     inkscape:window-width="1920"
     inkscape:window-height="995"
     inkscape:window-x="0"
     inkscape:window-y="0"
     inkscape:window-maximized="1"
     inkscape:current-layer="svg6" />
  <circle
     style="fill:#7aafbc;fill-opacity:0.992157;stroke-width:48.5242;stroke-linecap:round;stroke-linejoin:round"
     id="path867"
     cx="23.885714"
     cy="24.076189"
     r="22.742857" />
  <path
     id="path4"
     style="fill:#faffff;fill-opacity:1;stroke-width:0.507615"
     d="M 23.866905,9.4687681 A 14.720802,14.720802 0 0 0 9.1455178,24.190155 14.720802,14.720802 0 0 0 23.866905,38.910806 h 13.248364 c 0.815534,0 1.472288,-0.656753 1.472288,-1.472286 V 24.190155 A 14.720802,14.720802 0 0 0 23.866905,9.4687681 Z m 0.01916,4.0970519 c 0.208558,-0.002 0.417608,0.0027 0.626348,0.01327 v -0.003 c 1.113283,0.0564 2.223726,0.291506 3.289432,0.713301 l -1.237221,0.943942 c -3.549211,-1.048078 -7.513315,0.144968 -9.85577,3.296801 -0.601119,0.808941 -1.030083,1.686313 -1.326383,2.591608 l 4.3218,-0.637402 -2.122951,1.627031 -2.547394,0.373598 -1.341858,0.198221 c 0.212931,-1.726893 0.856041,-3.426102 1.971891,-4.928253 2.01921,-2.715599 5.093728,-4.158713 8.222106,-4.189163 z m 5.934831,2.004314 c 1.458421,0.950779 2.702891,2.277383 3.562077,3.940834 2.015867,3.90287 1.317733,8.452781 -1.393439,11.566804 l 2.53413,2.934993 -1.008052,0.872466 -3.285011,-3.803775 c 0.02202,-0.02058 0.04377,-0.04354 0.06558,-0.06411 l -0.0059,-0.042 c 2.96122,-2.702987 3.866218,-7.126701 1.93431,-10.866769 -0.462488,-0.895486 -1.060475,-1.66639 -1.743458,-2.330014 l -1.357333,4.259166 -0.394968,-3.035946 0.679403,-2.135477 0.412653,-1.291751 z m -16.317467,10.168943 1.422178,0.593188 c 0.835237,3.719266 3.9569,6.642353 7.967882,7.038678 1.002875,0.0992 1.977582,0.01494 2.906255,-0.196748 l -2.893727,-3.522285 2.551814,1.058895 1.69114,2.061054 h 0.0044 l 0.859939,1.047844 c -1.591103,0.706256 -3.385047,1.027227 -5.248059,0.84299 -4.89673,-0.484289 -8.632486,-4.259584 -9.261844,-8.923616 z" />
</svg>
