<?xml version="1.0" encoding="UTF-8" standalone="no"?>
<svg
   height="48"
   width="48"
   version="1.1"
   id="svg7515"
   sodipodi:docname="rambox.svg"
   inkscape:version="1.1.2 (0a00cf5339, 2022-02-04)"
   xmlns:inkscape="http://www.inkscape.org/namespaces/inkscape"
   xmlns:sodipodi="http://sodipodi.sourceforge.net/DTD/sodipodi-0.dtd"
   xmlns="http://www.w3.org/2000/svg"
   xmlns:svg="http://www.w3.org/2000/svg">
  <defs
     id="defs7519" />
  <sodipodi:namedview
     id="namedview7517"
     pagecolor="#ffffff"
     bordercolor="#666666"
     borderopacity="1.0"
     inkscape:showpageshadow="2"
     inkscape:pageopacity="0.0"
     inkscape:pagecheckerboard="0"
     inkscape:deskcolor="#d1d1d1"
     showgrid="false"
     inkscape:zoom="4.671875"
     inkscape:cx="-50.83612"
     inkscape:cy="50.51505"
     inkscape:window-width="1920"
     inkscape:window-height="1022"
     inkscape:window-x="0"
     inkscape:window-y="0"
     inkscape:window-maximized="1"
     inkscape:current-layer="svg7515"
     inkscape:pageshadow="2" />
  <path
     id="path7511"
     d="M 24.593117 7.6761115 A 19.729762 19.729765 0 0 0 4.8624532 27.405077 A 19.729762 19.729765 0 0 0 24.593117 47.134043 A 19.729762 19.729765 0 0 0 44.322083 27.405077 A 19.729762 19.729765 0 0 0 24.593117 7.6761115 z "
     transform="matrix(1.1503549 0 0 1.1503549 -4.486125 -7.525565)"
     style="fill:#8fbcbb;fill-opacity:1" />
  <path
     style="fill:#ffffff;fill-opacity:1;stroke-width:0.66277"
     d="m 21.054251,12.070139 c -3.688473,0 -6.529318,2.752641 -6.529318,6.441297 v 1.486055 c 0,2.724446 1.634749,5.068221 3.976617,6.109909 v -2.695092 c -0.963697,-0.80012 -1.32554,-2.032583 -1.32554,-3.414817 v -1.486055 c 0,-2.4071 1.47114,-3.790216 3.878241,-3.790216 h 5.496332 c 2.407097,0 3.880829,1.383116 3.880829,3.790216 v 1.486055 c 0,2.407095 -1.473743,4.009572 -3.880829,4.002509 h -2.74687 -0.88542 -0.440121 c 0,-0.732076 -0.593464,-1.325542 -1.325541,-1.325542 -0.732075,0 -1.325538,0.593466 -1.325538,1.325542 v 0.543678 2.777938 4.709292 c 0,0.577842 -0.429836,1.247874 -1.325543,1.247874 -0.895704,0 -1.32554,-0.433195 -1.32554,-1.21163 V 29.13129 27.849762 c 0,-0.681792 -0.654102,-1.198684 -1.335896,-1.198684 -0.681609,0 -1.315181,0.516892 -1.315181,1.198684 v 4.36237 c 0,2.045197 1.931426,3.717728 3.976617,3.717728 2.045195,0 3.976622,-1.540409 3.976622,-3.717728 V 29.71898 29.170125 28.030987 27.536499 26.651078 h 2.651078 v 5.561054 c 0,2.045197 1.931428,3.717728 3.976621,3.717728 2.045193,0 4.028071,-1.673181 3.976621,-3.717728 V 29.13129 27.849762 c 0,-0.681792 -0.643748,-1.198684 -1.32554,-1.198684 -0.681608,0 -1.32554,0.516892 -1.32554,1.198684 v 4.21739 c 0,0.778435 -0.660723,1.21163 -1.325541,1.21163 -0.664815,0 -1.362341,-0.539168 -1.325538,-1.115837 v -3.764327 -1.799316 -0.08284 c 2.971235,-0.680877 5.302159,-3.344032 5.302159,-6.518965 V 18.51144 c 0,-3.688653 -2.843437,-6.441297 -6.531909,-6.441294 z m -9.180399,9.278782 c -0.729095,0 -1.325541,0.605387 -1.325541,1.333306 v 4.654922 c 0,1.719937 1.110641,3.19294 2.651079,3.741028 v -3.935196 -3.093793 -1.366961 c 0,-0.727919 -0.596638,-1.333306 -1.325538,-1.333306 z m 23.859719,0 c -0.729095,0 -1.325539,0.605387 -1.325539,1.333306 v 8.39595 c 1.540438,-0.548088 2.651079,-2.021091 2.651079,-3.741028 v -3.287961 -1.366961 c 0,-0.727919 -0.596638,-1.333306 -1.32554,-1.333306 z"
     id="path6" />
</svg>
