<?xml version="1.0" encoding="UTF-8" standalone="no"?>
<svg
   height="48"
   width="48"
   version="1.1"
   id="svg20"
   sodipodi:docname="shadwen.svg"
   inkscape:version="1.1.2 (0a00cf5339, 2022-02-04)"
   xmlns:inkscape="http://www.inkscape.org/namespaces/inkscape"
   xmlns:sodipodi="http://sodipodi.sourceforge.net/DTD/sodipodi-0.dtd"
   xmlns="http://www.w3.org/2000/svg"
   xmlns:svg="http://www.w3.org/2000/svg">
  <defs
     id="defs24" />
  <sodipodi:namedview
     id="namedview22"
     pagecolor="#ffffff"
     bordercolor="#666666"
     borderopacity="1.0"
     inkscape:pageshadow="2"
     inkscape:pageopacity="0.0"
     inkscape:pagecheckerboard="0"
     showgrid="false"
     inkscape:zoom="4.6403883"
     inkscape:cx="-44.177338"
     inkscape:cy="23.273915"
     inkscape:window-width="1920"
     inkscape:window-height="1002"
     inkscape:window-x="0"
     inkscape:window-y="0"
     inkscape:window-maximized="1"
     inkscape:current-layer="svg20" />
  <path
     d="m44.322082 27.405077a19.729762 19.729765 0 0 1 -19.729762 19.729765 19.729762 19.729765 0 0 1 -19.7297621-19.729765 19.729762 19.729765 0 0 1 19.7297621-19.7297632 19.729762 19.729765 0 0 1 19.729762 19.7297632z"
     fill="#8787de"
     opacity=".99"
     transform="matrix(1.1503549 0 0 1.1503549 -4.486125 -7.525565)"
     id="path2" />
  <path
     style="fill:#ffffff;fill-opacity:1;stroke-width:0.894108"
     d="m 12.418192,36.46419 c -0.01792,-0.02838 0.334652,-0.457789 0.782699,-0.954393 3.05444,-3.386074 3.496396,-3.955779 3.843664,-4.954807 0.109627,-0.315321 0.227293,-0.582678 0.261525,-0.594087 0.03397,-0.01151 0.226209,0.197217 0.426666,0.463575 0.20056,0.266356 0.715014,0.903144 1.14347,1.415072 0.432746,0.517178 0.754537,0.953992 0.724224,0.983041 -0.03041,0.02872 -0.267437,0.123108 -0.527433,0.209685 -0.259901,0.08655 -0.73254,0.305724 -1.050034,0.48702 -0.637944,0.36422 -1.501471,1.109938 -1.426278,1.231654 0.03574,0.05748 1.554313,0.07501 6.50604,0.07501 5.74525,0 6.475106,-0.0108 6.598849,-0.09742 0.07688,-0.05356 0.139019,-0.145748 0.139019,-0.204818 0,-0.0591 -0.220567,-0.416545 -0.490325,-0.794384 -0.269663,-0.377835 -1.401326,-1.96836 -2.514844,-3.534491 -2.17178,-3.054565 -7.896193,-11.073045 -8.764997,-12.277689 -0.290043,-0.402125 -1.315851,-1.835105 -2.279698,-3.184389 -1.516847,-2.123598 -1.809038,-2.498729 -2.174728,-2.791805 -0.232293,-0.186199 -0.422374,-0.365538 -0.422374,-0.398493 0,-0.03407 0.264936,-0.05992 0.614874,-0.05992 0.558369,0 0.62659,0.01284 0.741748,0.140814 0.06976,0.07742 3.515262,4.914319 7.656754,10.748611 4.141491,5.834291 8.074299,11.373858 8.739605,12.310149 0.6653,0.936275 1.209631,1.731858 1.209631,1.767964 0,0.07986 -19.688806,0.09391 -19.738069,0.01419 z M 32.466876,35.999355 C 30.127271,32.775767 15.030944,11.564498 15.051331,11.529448 c 0.01521,-0.02568 4.292056,-0.04694 9.504777,-0.04694 8.149763,0 9.477594,0.0125 9.477594,0.08897 0,0.0489 -0.443562,0.505319 -0.985659,1.014217 -2.520661,2.36613 -3.611736,3.591601 -4.148824,4.659723 -0.13697,0.272473 -0.283962,0.494279 -0.326541,0.49291 -0.11587,-0.0037 -1.952633,-2.497438 -1.886204,-2.56081 0.03142,-0.02974 0.253482,-0.15974 0.494354,-0.289302 0.628735,-0.338044 1.343837,-0.849891 1.647119,-1.178876 0.286192,-0.310523 0.311875,-0.379288 0.162713,-0.43651 -0.05454,-0.02095 -2.260831,-0.03798 -4.90309,-0.03798 -4.662668,0 -4.807243,0.0038 -4.913103,0.120506 -0.05992,0.06626 -0.09953,0.159063 -0.08763,0.206204 0.01151,0.04711 0.485769,0.753087 1.053704,1.568797 1.100554,1.580698 1.201585,1.724807 2.315552,3.303109 0.39582,0.560827 0.84904,1.204708 1.007208,1.430826 0.158084,0.226108 0.563822,0.805402 0.901615,1.287295 0.66414,0.947601 1.162335,1.674257 2.258956,3.294989 0.387862,0.573094 0.842691,1.234912 1.010871,1.470695 0.346736,0.486088 2.74061,3.97398 4.457111,6.494132 0.631151,0.926552 1.336152,1.960904 1.566829,2.298565 0.469138,0.686733 0.760706,1.021012 1.238961,1.420455 0.179001,0.149534 0.309713,0.297377 0.290483,0.328569 -0.0196,0.03108 -0.555147,0.05667 -1.190676,0.05667 H 32.84182 Z"
     id="path10" />
</svg>
