<?xml version="1.0" encoding="UTF-8" standalone="no"?>
<svg
   height="48"
   width="48"
   version="1.1"
   id="svg20"
   sodipodi:docname="teamspeak3.svg"
   inkscape:version="1.1.2 (0a00cf5339, 2022-02-04)"
   xmlns:inkscape="http://www.inkscape.org/namespaces/inkscape"
   xmlns:sodipodi="http://sodipodi.sourceforge.net/DTD/sodipodi-0.dtd"
   xmlns="http://www.w3.org/2000/svg"
   xmlns:svg="http://www.w3.org/2000/svg">
  <defs
     id="defs24" />
  <sodipodi:namedview
     id="namedview22"
     pagecolor="#ffffff"
     bordercolor="#666666"
     borderopacity="1.0"
     inkscape:pageshadow="2"
     inkscape:pageopacity="0.0"
     inkscape:pagecheckerboard="0"
     showgrid="false"
     inkscape:zoom="4.6403883"
     inkscape:cx="43.961838"
     inkscape:cy="15.408193"
     inkscape:window-width="1920"
     inkscape:window-height="995"
     inkscape:window-x="0"
     inkscape:window-y="0"
     inkscape:window-maximized="1"
     inkscape:current-layer="svg20" />
  <path
     d="m44.322082 27.405077a19.729762 19.729765 0 0 1 -19.729762 19.729765 19.729762 19.729765 0 0 1 -19.7297621-19.729765 19.729762 19.729765 0 0 1 19.7297621-19.7297632 19.729762 19.729765 0 0 1 19.729762 19.7297632z"
     fill="#8787de"
     opacity=".99"
     transform="matrix(1.1503549 0 0 1.1503549 -4.486125 -7.525565)"
     id="path2"
     style="fill:#b48ead;fill-opacity:1" />
  <path
     id="rect5"
     style="fill:#ffffff;fill-opacity:1;stroke-width:0.581232"
     d="M 23.803772,7.7254449 C 14.787696,7.7254449 7.5292166,14.983924 7.5292166,24 c 0,9.016077 7.2584794,16.274556 16.2745554,16.274556 9.016075,0 16.274553,-7.258479 16.274553,-16.274556 0,-9.016076 -7.258478,-16.2745551 -16.274553,-16.2745551 z m -0.01834,4.2230481 c 3.050437,-0.05771 5.81484,1.131241 8.300254,3.559187 0.31981,0.319815 0.739334,0.619881 0.319578,1.159566 -0.07997,0.07996 0.04039,0.15993 0.120338,0.239881 0.979423,1.359205 1.638363,2.878091 1.938188,4.517126 0.03995,0.159903 0.160596,0.239624 0.280527,0.319576 0.819517,0.419752 1.239261,1.119878 1.239261,2.059325 0,0.81952 0.0793,1.639079 -0.04064,2.458596 -0.199886,1.199295 -1.224366,2.018719 -2.383685,1.758873 -0.31981,-0.07996 -0.45984,-0.320077 -0.45984,-0.659876 0,-1.3592 0.03995,-2.718005 0,-4.077206 -0.119924,-3.657849 -1.893674,-6.416167 -5.071804,-8.175133 -5.236922,-2.878308 -12.207224,0.37927 -13.346553,6.335768 -0.199885,1.019401 -0.15939,2.099074 -0.15939,3.118472 0,0.979426 1.25e-4,1.939016 -0.03984,2.918438 0,0.319813 -0.200406,0.539537 -0.58018,0.539537 -1.499119,0.07997 -2.303988,-0.859799 -2.303988,-2.378902 0.03998,-0.23986 0.03984,-0.539844 0.03984,-0.939606 0.03998,-0.379779 -0.04011,-0.819379 0.03984,-1.279108 0.119923,-0.739563 0.539801,-1.318721 1.199413,-1.638533 0.159904,-0.07997 0.239753,-0.160271 0.27973,-0.380146 0.279837,-1.599059 0.9397,-3.078357 1.899136,-4.39758 0.119924,-0.159905 0.199759,-0.239973 0.03986,-0.459842 -0.159904,-0.23986 -0.03955,-0.499043 0.120338,-0.698927 1.359202,-1.519105 2.957743,-2.639101 4.856626,-3.258737 1.281746,-0.404762 2.51935,-0.618168 3.712999,-0.640749 z M 18.189236,24 c 0.247481,0.0018 0.513822,0.07849 0.784998,0.240681 0.66169,0.334839 1.871731,1.265504 2.798097,2.139815 0.888555,0.837106 1.550348,1.636463 1.436904,2.213136 -0.113433,0.576674 -0.49132,0.930504 -1.001767,1.116528 -0.397015,0.167421 -2.2312,0.07456 -2.684931,0.09324 -0.812933,-0.07441 -1.474318,-0.391038 -1.946955,-1.116529 -0.661688,-1.023131 -0.888336,-2.176824 -0.661469,-3.404579 0.135883,-0.802229 0.642669,-1.287011 1.275123,-1.282295 z m 11.337437,1.74373 c 0.712176,2.7e-4 1.215411,0.467151 1.248027,1.204196 0.03727,0.803159 -0.223802,1.567613 -0.764276,2.174882 -0.428649,0.489735 -1.005915,0.724549 -1.77003,0.685378 -0.577748,-0.03918 -1.118169,-0.156742 -1.695914,-0.2351 -0.205007,-0.03915 -0.391534,-0.07831 -0.522005,-0.13707 -1.025027,-0.333024 -1.379108,-1.214445 -0.726814,-1.860888 0.465926,-0.430965 1.04362,-0.76418 1.695916,-1.038429 0.726843,-0.274248 1.416526,-0.646746 2.217916,-0.764277 0.109493,-0.01958 0.215448,-0.02873 0.317186,-0.02868 z m 3.476305,2.906486 c 0.04835,0.002 0.09424,0.0188 0.132289,0.05419 0.324769,0.226519 0.548304,0.962897 0.548304,1.397057 0.0406,2.227431 -1.177188,3.001224 -2.252984,3.775161 -3.14619,2.170802 -14.168385,0.736499 -6.982892,0.264588 6.089398,-0.396408 7.875541,-4.191046 8.261204,-5.32364 0.06977,-0.103832 0.187724,-0.171724 0.294075,-0.167358 z" />
</svg>
