<?xml version="1.0" encoding="UTF-8" standalone="no"?>
<svg
   height="48"
   width="48"
   version="1.1"
   id="svg6"
   sodipodi:docname="theia.svg"
   inkscape:version="1.1.2 (0a00cf5339, 2022-02-04)"
   xmlns:inkscape="http://www.inkscape.org/namespaces/inkscape"
   xmlns:sodipodi="http://sodipodi.sourceforge.net/DTD/sodipodi-0.dtd"
   xmlns="http://www.w3.org/2000/svg"
   xmlns:svg="http://www.w3.org/2000/svg"
   xmlns:rdf="http://www.w3.org/1999/02/22-rdf-syntax-ns#"
   xmlns:cc="http://creativecommons.org/ns#"
   xmlns:dc="http://purl.org/dc/elements/1.1/">
  <metadata
     id="metadata12">
    <rdf:RDF>
      <cc:Work
         rdf:about="">
        <dc:format>image/svg+xml</dc:format>
        <dc:type
           rdf:resource="http://purl.org/dc/dcmitype/StillImage" />
      </cc:Work>
    </rdf:RDF>
  </metadata>
  <defs
     id="defs10">
    <linearGradient
       gradientUnits="userSpaceOnUse"
       gradientTransform="matrix(0.0920001,0,0,0.09064843,-21.193131,1.5846311)"
       y2="269.48999"
       y1="235.14999"
       x2="657.65002"
       x1="319.20999"
       id="a-12">
      <stop
         id="stop1076"
         offset="0"
         stop-color="#e54c18" />
      <stop
         id="stop1078"
         offset="1"
         stop-color="#fec350" />
    </linearGradient>
    <linearGradient
       id="linearGradient946"
       x1="31.833"
       x2="32.167"
       y1="51.558998"
       y2="11.098"
       gradientUnits="userSpaceOnUse"
       gradientTransform="matrix(0.83258662,0,0,0.83258662,-4.004011,0.8380211)">
      <stop
         stop-color="#f9f9f9"
         offset="0"
         id="stop5" />
      <stop
         stop-color="#f0fee6"
         offset="1"
         id="stop7-3" />
    </linearGradient>
    <linearGradient
       gradientUnits="userSpaceOnUse"
       y2="12.7"
       y1="4.2333002"
       x2="7.9373002"
       x1="7.9373002"
       id="linearGradient1166">
      <stop
         id="stop13"
         offset="0"
         stop-color="#ffffff" />
      <stop
         id="stop15"
         offset="1"
         stop-color="#b8ffe1"
         style="stop-color:#d6f2dc;stop-opacity:1" />
    </linearGradient>
  </defs>
  <sodipodi:namedview
     pagecolor="#ffffff"
     bordercolor="#666666"
     borderopacity="1"
     objecttolerance="10"
     gridtolerance="10"
     guidetolerance="10"
     inkscape:pageopacity="0"
     inkscape:pageshadow="2"
     inkscape:window-width="1920"
     inkscape:window-height="1002"
     id="namedview8"
     showgrid="true"
     inkscape:zoom="9.2708332"
     inkscape:cx="13.806742"
     inkscape:cy="29.285394"
     inkscape:window-x="0"
     inkscape:window-y="0"
     inkscape:window-maximized="1"
     inkscape:current-layer="svg6"
     inkscape:document-rotation="0"
     inkscape:pagecheckerboard="0">
    <inkscape:grid
       type="xygrid"
       id="grid837" />
  </sodipodi:namedview>
  <ellipse
     cx="23.935831"
     cy="24.468578"
     opacity="0.99"
     id="circle2"
     style="fill:#ebcb8b;fill-opacity:1;stroke-width:1.75831"
     rx="23.267658"
     ry="23.26766" />
  <path
     id="path4"
     style="fill:#434c5e;fill-opacity:1;stroke-width:0.611466"
     d="m 9.306856,15.907778 a 1.2546051,1.2230736 0 1 0 0,2.44606 h 4.180122 a 1.2546051,1.2230736 0 1 0 0,-2.44606 z m 7.712226,0 c -1.653846,-0.02341 -1.653846,2.469474 0,2.44606 h 1.144283 0.895741 c 1.653788,-0.02337 1.653788,2.469413 0,2.44606 H 18.490655 14.573842 12.33039 c -1.653847,-0.02343 -1.653847,2.469473 0,2.44606 h 4.688692 1.369039 2.689681 c 1.653792,-0.02336 1.653792,2.468593 0,2.445241 h -2.608473 -0.06234 c -1.653848,-0.02343 -1.653848,2.469473 0,2.44606 h 1.16315 0.652118 c 1.653791,-0.02336 1.653791,2.469412 0,2.446059 h -1.99655 -2.837331 c -1.653847,-0.0234 -1.653847,2.469468 0,2.44606 h 11.72337 6.604035 0.408497 v -0.01477 c 4.56247,-0.217493 8.150248,-3.978791 8.152713,-8.546443 -0.0057,-4.565184 -3.592701,-8.321672 -8.152713,-8.53906 v -0.02132 H 33.71578 21.077802 17.408712 Z m 17.308623,3.66909 c 2.363287,0 4.280195,1.825327 4.280195,4.075947 v 1.631527 c 0,2.253364 -1.916908,4.075946 -4.280195,4.075946 -2.366159,0 -4.281016,-1.822582 -4.281016,-4.075946 v -1.631527 c 0,-2.25062 1.914857,-4.075947 4.281016,-4.075947 z m -1.834955,3.66909 a 1.2229735,1.2229735 0 0 0 -1.22139,1.22139 1.2229735,1.2229735 0 0 0 1.22139,1.22467 h 3.667449 a 1.2229735,1.2229735 0 0 0 1.224671,-1.22467 1.2229735,1.2229735 0 0 0 -1.224671,-1.22139 z m -20.821041,2.445241 a 1.1758337,1.2230736 0 1 0 0,2.44606 h 3.119506 a 1.1758337,1.2230736 0 1 0 0,-2.44606 z m -4.808452,4.892119 a 1.2579657,1.2230736 0 1 0 0,2.44606 h 4.1752 a 1.2579657,1.2230736 0 1 0 0,-2.44606 z" />
</svg>
