<?xml version="1.0" encoding="UTF-8" standalone="no"?>
<svg
   height="48"
   width="48"
   version="1.1"
   id="svg6"
   sodipodi:docname="tizen-studio-ide.svg"
   inkscape:version="1.1.2 (0a00cf5339, 2022-02-04)"
   xmlns:inkscape="http://www.inkscape.org/namespaces/inkscape"
   xmlns:sodipodi="http://sodipodi.sourceforge.net/DTD/sodipodi-0.dtd"
   xmlns="http://www.w3.org/2000/svg"
   xmlns:svg="http://www.w3.org/2000/svg"
   xmlns:rdf="http://www.w3.org/1999/02/22-rdf-syntax-ns#"
   xmlns:cc="http://creativecommons.org/ns#"
   xmlns:dc="http://purl.org/dc/elements/1.1/">
  <metadata
     id="metadata12">
    <rdf:RDF>
      <cc:Work
         rdf:about="">
        <dc:format>image/svg+xml</dc:format>
        <dc:type
           rdf:resource="http://purl.org/dc/dcmitype/StillImage" />
      </cc:Work>
    </rdf:RDF>
  </metadata>
  <defs
     id="defs10">
    <linearGradient
       gradientUnits="userSpaceOnUse"
       gradientTransform="matrix(0.0920001,0,0,0.09064843,-21.193131,1.5846311)"
       y2="269.48999"
       y1="235.14999"
       x2="657.65002"
       x1="319.20999"
       id="a-12">
      <stop
         id="stop1076"
         offset="0"
         stop-color="#e54c18" />
      <stop
         id="stop1078"
         offset="1"
         stop-color="#fec350" />
    </linearGradient>
    <linearGradient
       id="linearGradient946"
       x1="31.833"
       x2="32.167"
       y1="51.558998"
       y2="11.098"
       gradientUnits="userSpaceOnUse"
       gradientTransform="matrix(0.83258662,0,0,0.83258662,-4.004011,0.8380211)">
      <stop
         stop-color="#f9f9f9"
         offset="0"
         id="stop5" />
      <stop
         stop-color="#f0fee6"
         offset="1"
         id="stop7-3" />
    </linearGradient>
    <linearGradient
       gradientUnits="userSpaceOnUse"
       y2="12.7"
       y1="4.2333002"
       x2="7.9373002"
       x1="7.9373002"
       id="linearGradient1166">
      <stop
         id="stop13"
         offset="0"
         stop-color="#ffffff" />
      <stop
         id="stop15"
         offset="1"
         stop-color="#b8ffe1"
         style="stop-color:#d6f2dc;stop-opacity:1" />
    </linearGradient>
  </defs>
  <sodipodi:namedview
     pagecolor="#ffffff"
     bordercolor="#666666"
     borderopacity="1"
     objecttolerance="10"
     gridtolerance="10"
     guidetolerance="10"
     inkscape:pageopacity="0"
     inkscape:pageshadow="2"
     inkscape:window-width="1920"
     inkscape:window-height="995"
     id="namedview8"
     showgrid="true"
     inkscape:zoom="4.6354166"
     inkscape:cx="-39.478652"
     inkscape:cy="30.202248"
     inkscape:window-x="0"
     inkscape:window-y="0"
     inkscape:window-maximized="1"
     inkscape:current-layer="svg6"
     inkscape:document-rotation="0"
     inkscape:pagecheckerboard="0">
    <inkscape:grid
       type="xygrid"
       id="grid837" />
  </sodipodi:namedview>
  <circle
     cx="23.940615"
     cy="31.534513"
     opacity=".99"
     r="13.232998"
     transform="matrix(1.75830584759 0 0 1.75830608345 -18.15909274367 -30.97874795549)"
     id="circle2"
     style="fill:#5e81ac;fill-opacity:1" />
  <ellipse
     cx="23.935829"
     cy="24.468578"
     opacity="0.99"
     id="circle858"
     style="fill:#ffffff;fill-opacity:0.26542;stroke-width:1.50099"
     rx="19.862556"
     ry="19.862558" />
  <path
     style="fill:#ffffff;stroke-width:0.703758"
     d="m 23.532157,10.393467 c -0.03674,-7.07e-4 -0.07206,0.0066 -0.103628,0.02314 -1.770271,1.125302 -4.252898,2.69156 -4.86488,4.608711 -0.191403,0.634857 -0.10674,0.869795 -0.0024,1.381531 0.173079,0.615729 0.534741,1.422953 0.93734,2.093748 0.260774,0.434495 1.119671,1.58102 1.184434,1.58102 1.18966,-0.780914 2.362445,-2.407823 3.320189,-3.385143 v -2.560587 c 0,-2.778214 -0.02824,-3.326951 -0.181722,-3.553585 -0.05772,-0.113763 -0.17915,-0.186989 -0.289311,-0.188771 z m -5.435578,5.531107 c -0.06261,0.0015 -0.161162,0.245348 -0.219174,0.542391 -0.150495,0.770245 -0.820464,3.513196 -1.118278,4.579866 -0.241782,0.865959 -0.327382,1.795862 -0.187307,2.030258 0.103811,0.173716 1.864508,0.832231 4.383817,1.639554 1.222501,0.391754 1.415611,0.383964 1.661864,-0.06349 0.375149,-0.681686 0.433519,-0.563374 -1.920114,-3.887443 -1.857799,-2.623792 -2.104303,-3.067496 -2.356901,-4.241067 -0.07137,-0.331603 -0.18127,-0.601503 -0.243884,-0.600091 z m 12.839791,0.08026 c -0.08852,-0.0018 -0.192922,0.0032 -0.302089,0.01649 -0.754821,0.08998 -3.483819,0.278181 -4.556764,0.314877 -0.87107,0.02976 -1.8542,0.23327 -2.026482,0.443491 -0.127648,0.155762 -0.08834,2.814957 -0.05224,5.542344 0.01756,1.323481 0.08472,1.510887 0.572296,1.614816 0.742814,0.158342 0.65223,-0.04924 2.981782,-3.391378 1.838772,-2.638073 2.170318,-3.439903 3.171484,-4.050995 0.282901,-0.172679 0.4973,-0.364179 0.476649,-0.425345 -0.01309,-0.03823 -0.117088,-0.06109 -0.264631,-0.06429 z m 1.236233,0.24564 c -0.64297,0.008 -0.832952,0.163741 -1.271299,0.424513 -0.512743,0.360514 -1.14389,1.387788 -1.636367,1.991048 -0.31897,0.390764 -1.107186,1.589875 -1.087176,1.653561 1.085761,0.928806 2.309148,2.204888 3.503859,2.844878 l 3.020845,-1.015545 c 2.554885,-0.858528 3.050355,-1.357733 3.211344,-1.578746 0.08673,-0.09196 0.116906,-0.234017 0.08451,-0.342906 -0.01084,-0.03628 -0.02836,-0.06889 -0.0534,-0.0948 -1.581886,-1.393444 -3.820132,-3.872506 -5.772292,-3.882004 z M 10.282235,21.1103 c -0.05935,0 -0.105092,0.0069 -0.145069,0.01968 -0.122439,0.02154 -0.2273658,0.118876 -0.2630348,0.226675 -0.01197,0.03596 -0.01676,0.07264 -0.01112,0.108809 0.4878108,2.088927 1.1296908,5.114072 2.7036338,6.308437 0.524677,0.384422 0.766865,0.373955 1.269704,0.429458 0.61972,0.01995 1.473735,-0.08661 2.215023,-0.275325 0.480145,-0.122227 1.800469,-0.612237 1.820479,-0.675925 -0.350573,-1.411444 -0.787312,-2.943483 -1.390117,-4.187488 l -3.020833,-1.01472 c -2.155682,-0.724363 -2.85815,-0.939089 -3.17867,-0.939698 z M 31.578,23.244417 c -0.357304,-0.0016 -2.08433,0.521875 -4.425259,1.345274 -1.211686,0.426202 -1.363059,0.550035 -1.307976,1.061712 0.08392,0.779543 -0.03043,0.719023 3.76291,1.97751 2.994235,0.993372 3.445513,1.203061 4.31686,1.998953 0.246223,0.224893 0.488145,0.376353 0.538015,0.337142 0.04987,-0.03921 -0.0087,-0.296483 -0.130704,-0.572073 -0.316017,-0.71462 -1.333221,-3.341341 -1.698528,-4.385308 -0.29657,-0.847564 -0.755359,-1.6513 -1.0019,-1.755788 -0.0114,-0.0051 -0.02961,-0.0072 -0.05341,-0.0075 z m -9.516064,3.138154 c -0.441436,-9.68e-4 -1.30962,0.302033 -3.556468,1.06664 -2.986964,1.01649 -3.47123,1.121515 -4.628507,1.007307 -0.327009,-0.03228 -0.60922,-0.0077 -0.627289,0.05439 -0.01809,0.06204 0.175978,0.234441 0.431213,0.383312 0.661823,0.386041 2.976835,2.617193 3.86573,3.239719 0.721634,0.505413 1.550467,0.877289 1.809315,0.811951 0.19183,-0.04844 1.341303,-2.301335 2.86222,-4.529772 0.738044,-1.081363 0.790507,-1.27392 0.455131,-1.654385 -0.207577,-0.235479 -0.309314,-0.378422 -0.611345,-0.379175 z m 2.894118,0.947116 c -0.09081,0.0029 -0.185526,0.03596 -0.298902,0.08903 -0.690949,0.323446 -0.670864,0.192016 -0.655974,4.311958 0.01168,3.252008 -0.0411,3.761273 -0.503738,4.864235 -0.130731,0.311675 -0.19574,0.596144 -0.144271,0.633074 0.05146,0.03695 0.270448,-0.09995 0.486217,-0.304993 0.559512,-0.531662 2.659864,-2.344129 3.507045,-3.026049 0.687787,-0.553598 1.285677,-1.253485 1.305574,-1.528256 0.01463,-0.20364 -1.035025,-1.806734 -2.614338,-3.991296 -0.574772,-0.795063 -0.809171,-1.056335 -1.081608,-1.047711 z m 5.060509,0.841617 c -0.0042,7.08e-4 -0.0069,0.0011 -0.0087,0.0025 -0.518627,1.354945 -1.035994,2.859974 -1.255358,4.232824 l 1.866704,2.65757 c 1.579007,2.247611 1.914212,2.673858 2.167204,2.763904 0.111343,0.05692 0.251011,0.04245 0.341141,-0.02315 0.03006,-0.02181 0.05484,-0.04897 0.07093,-0.08161 0.792602,-1.986506 1.99254,-4.823943 1.39804,-6.746965 -0.206001,-0.629929 -0.408239,-0.7688 -0.783513,-1.119373 -0.489994,-0.392921 -1.241085,-0.825582 -1.948035,-1.123532 -0.443614,-0.186963 -1.72133,-0.574006 -1.848378,-0.562189 z m -8.561188,4.770477 c -0.727908,0.0037 -1.446263,0.04496 -2.111401,0.149192 l -1.867502,1.932823 c -1.579002,2.247617 -1.867654,2.708964 -1.872293,2.985639 -0.01783,0.127113 0.03862,0.259683 0.126747,0.328081 0.02937,0.02288 0.06227,0.03876 0.09722,0.04451 2.071753,0.165709 5.051572,0.469249 6.636298,-0.709735 0.515667,-0.397276 0.58106,-0.639505 0.787498,-1.116944 0.209917,-0.603337 0.375654,-1.476127 0.431209,-2.263544 0.03596,-0.510032 -0.0075,-1.234814 -0.05977,-1.274192 -0.703154,-0.04569 -1.440085,-0.07948 -2.168002,-0.07583 z"
     id="path10" />
</svg>
