<?xml version="1.0" encoding="UTF-8" standalone="no"?>
<svg
   height="48"
   width="48"
   version="1.1"
   id="svg6"
   sodipodi:docname="tizen-studio-certificatemanager.svg"
   inkscape:version="1.1.2 (0a00cf5339, 2022-02-04)"
   xmlns:inkscape="http://www.inkscape.org/namespaces/inkscape"
   xmlns:sodipodi="http://sodipodi.sourceforge.net/DTD/sodipodi-0.dtd"
   xmlns="http://www.w3.org/2000/svg"
   xmlns:svg="http://www.w3.org/2000/svg"
   xmlns:rdf="http://www.w3.org/1999/02/22-rdf-syntax-ns#"
   xmlns:cc="http://creativecommons.org/ns#"
   xmlns:dc="http://purl.org/dc/elements/1.1/">
  <metadata
     id="metadata12">
    <rdf:RDF>
      <cc:Work
         rdf:about="">
        <dc:format>image/svg+xml</dc:format>
        <dc:type
           rdf:resource="http://purl.org/dc/dcmitype/StillImage" />
      </cc:Work>
    </rdf:RDF>
  </metadata>
  <defs
     id="defs10">
    <linearGradient
       gradientUnits="userSpaceOnUse"
       gradientTransform="matrix(0.0920001,0,0,0.09064843,-21.193131,1.5846311)"
       y2="269.48999"
       y1="235.14999"
       x2="657.65002"
       x1="319.20999"
       id="a-12">
      <stop
         id="stop1076"
         offset="0"
         stop-color="#e54c18" />
      <stop
         id="stop1078"
         offset="1"
         stop-color="#fec350" />
    </linearGradient>
    <linearGradient
       id="linearGradient946"
       x1="31.833"
       x2="32.167"
       y1="51.558998"
       y2="11.098"
       gradientUnits="userSpaceOnUse"
       gradientTransform="matrix(0.83258662,0,0,0.83258662,-4.004011,0.8380211)">
      <stop
         stop-color="#f9f9f9"
         offset="0"
         id="stop5" />
      <stop
         stop-color="#f0fee6"
         offset="1"
         id="stop7-3" />
    </linearGradient>
    <linearGradient
       gradientUnits="userSpaceOnUse"
       y2="12.7"
       y1="4.2333002"
       x2="7.9373002"
       x1="7.9373002"
       id="linearGradient1166">
      <stop
         id="stop13"
         offset="0"
         stop-color="#ffffff" />
      <stop
         id="stop15"
         offset="1"
         stop-color="#b8ffe1"
         style="stop-color:#d6f2dc;stop-opacity:1" />
    </linearGradient>
  </defs>
  <sodipodi:namedview
     pagecolor="#ffffff"
     bordercolor="#666666"
     borderopacity="1"
     objecttolerance="10"
     gridtolerance="10"
     guidetolerance="10"
     inkscape:pageopacity="0"
     inkscape:pageshadow="2"
     inkscape:window-width="1920"
     inkscape:window-height="995"
     id="namedview8"
     showgrid="true"
     inkscape:zoom="4.6354166"
     inkscape:cx="-15.316854"
     inkscape:cy="29.555057"
     inkscape:window-x="0"
     inkscape:window-y="0"
     inkscape:window-maximized="1"
     inkscape:current-layer="svg6"
     inkscape:document-rotation="0"
     inkscape:pagecheckerboard="0">
    <inkscape:grid
       type="xygrid"
       id="grid837" />
  </sodipodi:namedview>
  <circle
     cx="23.940615"
     cy="31.534513"
     opacity=".99"
     r="13.232998"
     transform="matrix(1.75830584759 0 0 1.75830608345 -18.15909274367 -30.97874795549)"
     id="circle2"
     style="fill:#5e81ac;fill-opacity:1" />
  <ellipse
     cx="23.935829"
     cy="24.468578"
     opacity="0.99"
     id="circle858"
     style="fill:#ffffff;fill-opacity:0.26542;stroke-width:1.50099"
     rx="19.862556"
     ry="19.862558" />
  <path
     style="fill:#ffffff;stroke-width:0.757066"
     d="m 25.130585,9.4787544 -1.37219,1.0927216 -1.412111,-1.0409686 -1.040968,1.4091516 -1.635387,-0.638776 -0.641734,1.63243 -1.743327,-0.196662 -0.196661,1.743328 -1.734456,0.263188 0.260242,1.737413 -1.608769,0.700882 0.703836,1.608768 -1.372187,1.092723 1.092721,1.372186 -1.040968,1.412111 1.409155,1.04097 -0.638779,1.635387 1.632429,0.641732 -0.196661,1.743329 1.74333,0.196661 0.263188,1.734457 1.737417,-0.260241 0.700878,1.608773 1.608773,-0.703839 1.09272,1.372186 1.372188,-1.092722 1.412112,1.040972 1.040968,-1.409155 1.635387,0.638776 0.641734,-1.63243 1.743327,0.196661 0.196661,-1.743327 1.734456,-0.263188 -0.260241,-1.737413 1.608768,-0.700882 -0.703836,-1.60877 1.372188,-1.092722 -1.092722,-1.372186 1.040968,-1.41211 -1.409155,-1.04097 0.638777,-1.635388 -1.632427,-0.641732 0.196661,-1.743327 -1.743327,-0.196662 -0.263188,-1.734457 -1.737413,0.260241 -0.700879,-1.608772 -1.608773,0.703838 z m -1.19475,5.2994776 a 5.2994803,5.2994803 0 0 1 5.299479,5.299483 5.2994803,5.2994803 0 0 1 -5.299479,5.29948 5.2994803,5.2994803 0 0 1 -5.29948,-5.29948 5.2994803,5.2994803 0 0 1 5.29948,-5.299483 z m -5.243292,14.941758 -0.0562,0.0089 v 9.729513 l 5.29948,-4.239289 5.299479,4.239289 v -9.180934 l -0.433244,1.101592 -1.864576,-0.728971 -1.188835,1.608768 -1.610249,-1.188835 -1.564412,1.247982 -1.246501,-1.564412 -1.836485,0.801428 z"
     id="path10" />
</svg>
