<?xml version="1.0" encoding="UTF-8" standalone="no"?>
<svg
   height="48"
   width="48"
   version="1.1"
   id="svg6"
   sodipodi:docname="twinkle.svg"
   inkscape:version="1.1.2 (0a00cf5339, 2022-02-04)"
   xmlns:inkscape="http://www.inkscape.org/namespaces/inkscape"
   xmlns:sodipodi="http://sodipodi.sourceforge.net/DTD/sodipodi-0.dtd"
   xmlns="http://www.w3.org/2000/svg"
   xmlns:svg="http://www.w3.org/2000/svg"
   xmlns:rdf="http://www.w3.org/1999/02/22-rdf-syntax-ns#"
   xmlns:cc="http://creativecommons.org/ns#"
   xmlns:dc="http://purl.org/dc/elements/1.1/">
  <metadata
     id="metadata12">
    <rdf:RDF>
      <cc:Work
         rdf:about="">
        <dc:format>image/svg+xml</dc:format>
        <dc:type
           rdf:resource="http://purl.org/dc/dcmitype/StillImage" />
      </cc:Work>
    </rdf:RDF>
  </metadata>
  <defs
     id="defs10" />
  <sodipodi:namedview
     pagecolor="#ffffff"
     bordercolor="#666666"
     borderopacity="1"
     objecttolerance="10"
     gridtolerance="10"
     guidetolerance="10"
     inkscape:pageopacity="0"
     inkscape:pageshadow="2"
     inkscape:window-width="1920"
     inkscape:window-height="1030"
     id="namedview8"
     showgrid="true"
     inkscape:zoom="6.9532164"
     inkscape:cx="-31.783852"
     inkscape:cy="-3.5954584"
     inkscape:window-x="0"
     inkscape:window-y="0"
     inkscape:window-maximized="1"
     inkscape:current-layer="svg6"
     inkscape:pagecheckerboard="0">
    <inkscape:grid
       type="xygrid"
       id="grid822" />
  </sodipodi:namedview>
  <path
     d="m44.322082 27.405077a19.729762 19.729765 0 0 1 -19.729762 19.729765 19.729762 19.729765 0 0 1 -19.7297621-19.729765 19.729762 19.729765 0 0 1 19.7297621-19.7297632 19.729762 19.729765 0 0 1 19.729762 19.7297632z"
     opacity=".99"
     transform="matrix(1.1503549 0 0 1.1503549 -4.486125 -7.525565)"
     id="path2"
     style="fill:#ebcb8b;fill-opacity:1" />
  <g
     id="g933"
     transform="translate(-2.5726567,-1.8918614)">
    <path
       style="fill:#ffffff;fill-opacity:1;stroke-width:0.764298"
       d="m 26.376587,10.605935 c -1.446956,0.02051 -2.478873,0.880142 -2.963148,2.303346 l 0.0179,-0.06419 -2.27349,6.932424 h -7.666867 c -0.01676,-2.64e-4 -0.03255,-2.64e-4 -0.04925,0 -0.915557,0.02927 -1.741106,0.450939 -2.322749,1.149435 -1.2579207,1.42431 -0.991306,3.665367 0.606063,4.7276 l 6.027806,4.345453 -2.339169,7.168282 c -0.0027,0.0078 -0.0049,0.01589 -0.0075,0.02397 -0.357429,1.158188 -0.02138,2.351408 0.877746,3.167659 0.0062,0.0061 0.01417,0.01205 0.02079,0.0179 1.080393,0.947382 2.598408,1.067788 3.818507,0.28364 0.0231,-0.01477 0.0463,-0.03027 0.06866,-0.04627 l 6.184557,-4.405167 6.184546,4.405164 c 0.02224,0.01589 0.04544,0.03145 0.06865,0.04627 1.220097,0.784163 2.738114,0.663756 3.818505,-0.28364 0.0067,-0.0058 0.01446,-0.01176 0.02079,-0.0179 0.899063,-0.816251 1.235176,-2.009471 0.87775,-3.167659 -0.0026,-0.0081 -0.0048,-0.01589 -0.0075,-0.02397 L 35,30 41.02781,25.654547 c 1.597368,-1.062233 1.863982,-3.30329 0.606063,-4.7276 -0.581643,-0.698496 -1.407195,-1.12016 -2.322753,-1.149435 -0.01675,-2.64e-4 -0.03253,-2.64e-4 -0.04925,0 h -7.666872 l -2.273489,-6.932418 0.0179,0.06419 C 28.855203,11.48608 27.823285,10.626338 26.376333,10.605938 Z"
       id="path4" />
    <circle
       style="fill:#ebcb8b;fill-opacity:0.99215686;stroke-width:0.764298"
       cx="26.376581"
       cy="27.420496"
       r="5.3500886"
       id="circle10" />
  </g>
</svg>
