<?xml version="1.0" encoding="UTF-8" standalone="no"?>
<svg
   height="48"
   width="48"
   version="1.1"
   id="svg10"
   sodipodi:docname="vmware-view.svg"
   inkscape:version="1.1.2 (0a00cf5339, 2022-02-04)"
   xmlns:inkscape="http://www.inkscape.org/namespaces/inkscape"
   xmlns:sodipodi="http://sodipodi.sourceforge.net/DTD/sodipodi-0.dtd"
   xmlns="http://www.w3.org/2000/svg"
   xmlns:svg="http://www.w3.org/2000/svg"
   xmlns:rdf="http://www.w3.org/1999/02/22-rdf-syntax-ns#"
   xmlns:cc="http://creativecommons.org/ns#"
   xmlns:dc="http://purl.org/dc/elements/1.1/">
  <metadata
     id="metadata16">
    <rdf:RDF>
      <cc:Work
         rdf:about="">
        <dc:format>image/svg+xml</dc:format>
        <dc:type
           rdf:resource="http://purl.org/dc/dcmitype/StillImage" />
      </cc:Work>
    </rdf:RDF>
  </metadata>
  <defs
     id="defs14" />
  <sodipodi:namedview
     pagecolor="#ffffff"
     bordercolor="#666666"
     borderopacity="1"
     objecttolerance="10"
     gridtolerance="10"
     guidetolerance="10"
     inkscape:pageopacity="0"
     inkscape:pageshadow="2"
     inkscape:window-width="1920"
     inkscape:window-height="995"
     id="namedview12"
     showgrid="false"
     inkscape:zoom="13.906433"
     inkscape:cx="6.5437339"
     inkscape:cy="23.370478"
     inkscape:window-x="0"
     inkscape:window-y="0"
     inkscape:window-maximized="1"
     inkscape:current-layer="svg10"
     inkscape:pagecheckerboard="0" />
  <g
     fill="#5f8dd3"
     opacity="0.99"
     transform="matrix(1.1503549,0,0,1.1503549,-4.486125,-7.525565)"
     id="g6"
     style="fill:#9b9b67;fill-opacity:1">
    <path
       d="M 44.322082,27.405077 A 19.729762,19.729765 0 0 1 24.59232,47.134842 19.729762,19.729765 0 0 1 4.8625579,27.405077 19.729762,19.729765 0 0 1 24.59232,7.6753138 19.729762,19.729765 0 0 1 44.322082,27.405077 Z"
       id="path4"
       style="fill:#a3be8c;fill-opacity:1" />
  </g>
  <path
     id="path8"
     style="fill:#ffffff;stroke-width:0.698094"
     d="m 13.658397,13.444716 c -1.128006,0 -2.035575,0.884469 -2.035575,1.983636 v 14.880829 c 0,1.099169 0.907569,1.983636 2.035575,1.983636 h 9.134118 v 2.792601 h -3.897546 c -0.548017,0 -0.989684,0.467197 -0.989684,1.047314 0,0.580117 0.441667,1.046603 0.989684,1.046603 h 9.889009 c 0.548017,0 0.988972,-0.466486 0.988972,-1.046603 0,-0.580117 -0.440955,-1.047314 -0.988972,-1.047314 h -3.897546 v -2.792601 h 9.134117 c 1.128008,0 2.035576,-0.884467 2.035576,-1.983636 V 15.428352 c 0,-1.099167 -0.907568,-1.983636 -2.035576,-1.983636 z m 0.05834,2.093918 H 33.961496 V 30.1989 H 13.716739 Z" />
  <rect
     style="fill:#ffffff;stroke-width:0.698094"
     width="3.4904759"
     height="2.7923806"
     x="22.094112"
     y="16.934849"
     id="rect14" />
  <rect
     style="fill:#ffffff;stroke-width:0.698094"
     width="3.4904759"
     height="2.7923806"
     x="19.301733"
     y="21.123421"
     id="rect16" />
  <rect
     style="fill:#ffffff;stroke-width:0.698094"
     width="3.4904759"
     height="2.7923806"
     x="24.886496"
     y="21.123421"
     id="rect18" />
  <rect
     style="fill:#ffffff;stroke-width:0.698094"
     width="3.4904759"
     height="2.7923806"
     x="22.094112"
     y="25.311993"
     id="rect20" />
  <rect
     style="fill:#ffffff;stroke-width:0.698094"
     width="3.4904759"
     height="2.7923806"
     x="16.509352"
     y="25.311993"
     id="rect22" />
  <rect
     style="fill:#ffffff;stroke-width:0.698094"
     width="3.4904759"
     height="2.7923806"
     x="27.678875"
     y="25.311993"
     id="rect24" />
</svg>
