<?xml version="1.0" encoding="UTF-8" standalone="no"?>
<svg
   id="svg8"
   version="1.1"
   viewBox="0 0 22 22"
   sodipodi:docname="redshift-status-off.svg"
   inkscape:version="1.1.2 (0a00cf5339, 2022-02-04)"
   xmlns:inkscape="http://www.inkscape.org/namespaces/inkscape"
   xmlns:sodipodi="http://sodipodi.sourceforge.net/DTD/sodipodi-0.dtd"
   xmlns="http://www.w3.org/2000/svg"
   xmlns:svg="http://www.w3.org/2000/svg">
  <sodipodi:namedview
     id="namedview7"
     pagecolor="#ffffff"
     bordercolor="#666666"
     borderopacity="1.0"
     inkscape:pageshadow="2"
     inkscape:pageopacity="0.0"
     inkscape:pagecheckerboard="0"
     showgrid="false"
     inkscape:lockguides="true"
     inkscape:zoom="28.727273"
     inkscape:cx="9.3987342"
     inkscape:cy="11.348101"
     inkscape:window-width="1920"
     inkscape:window-height="1002"
     inkscape:window-x="0"
     inkscape:window-y="0"
     inkscape:window-maximized="1"
     inkscape:current-layer="svg8" />
  <defs
     id="defs2">
    <style
       type="text/css"
       id="current-color-scheme">
        .ColorScheme-Text {            color:#232629;        }
        .ColorScheme-NegativeText {            color:#da4453;        }
    </style>
  </defs>
  <path
     id="path1419"
     style="color:#232629;fill:#f6f7f7;stroke-width:1.41217;stroke-linecap:round;stroke-linejoin:round;-inkscape-stroke:none;paint-order:markers fill stroke;stroke:none;stroke-opacity:1;fill-opacity:1"
     d="m 10.537366,2.6141354 v 0.010391 C 7.3841441,2.8111586 5.5892545,5.0919713 5.5892545,7.3939863 c 0,2.1585919 1.1850927,3.4561887 2.1126068,4.7964697 L 14.947458,4.9469353 C 14.147594,3.688148 12.703738,2.7419279 10.720167,2.6245218 v -0.010391 c -0.03042,-1.17e-4 -0.06121,3.536e-4 -0.0914,0.00416 -0.0302,-0.0038 -0.06099,-0.00428 -0.0914,-0.00416 z M 17.382045,3.9311391 3.9938936,17.319291 4.6710903,17.996489 18.06132,4.6083366 Z M 15.545719,8.5448066 8.6740338,15.418569 v 0.612801 3.685118 h 1.8633322 0.182801 1.861254 V 16.03137 14.616734 c -2.69e-4,-0.0175 -3.25e-4,-0.03451 -0.0021,-0.05194 0,0 2.56e-4,-0.0132 0,-0.01662 v -0.0021 -0.0041 -0.0021 c -0.0035,-0.05748 -0.01163,-0.316096 0.118406,-0.789371 0.628146,-1.767242 2.37245,-3.008176 2.847969,-5.2056963 z m -5.459127,6.7117324 h 0.450774 0.182801 0.450773 v 2.893669 h -0.450773 -0.182801 -0.450774 z" />
  <g
     id="rect1979"
     transform="rotate(45)" />
</svg>
